<?xml version="1.0" encoding="utf-8"?>
<!-- Generator: Adobe Illustrator 22.0.1, SVG Export Plug-In . SVG Version: 6.00 Build 0)  -->
<svg version="1.1" id="Calque_1" xmlns="http://www.w3.org/2000/svg" xmlns:xlink="http://www.w3.org/1999/xlink" x="0px" y="0px"
	 viewBox="0 0 145.4 98" style="enable-background:new 0 0 145.4 98;" xml:space="preserve">
<style type="text/css">
	.st0{fill:#99643E;}
	.st1{fill:#FCEE37;}
	.st2{fill:#C36928;}
	.st3{fill:#F79420;}
	.st4{fill:#89191B;}
	.st5{fill:#99CA46;}
	.st6{fill:#EE3E8A;}
	.st7{fill:#33A2DC;}
	.st8{fill:#FABFB7;}
	.st9{fill:#3DA4DC;}
	.st10{fill:#FDEE10;}
	.st11{fill:#E73082;}
	.st12{fill:#6E3283;}
	.st13{fill:#A1C63A;}
	.st14{fill:#F39220;}
	.st15{fill:#40A4DC;}
	.st16{fill:#9D237A;}
	.st17{fill:#3D2F81;}
	.st18{fill:#E83282;}
	.st19{fill:#E32526;}
	.st20{fill:#9E3927;}
	.st21{fill:#A26438;}
	.st22{fill:#2AB9CB;}
	.st23{fill:#47553D;}
	.st24{fill:#382B72;}
	.st25{fill:#422B73;}
	.st26{fill:#009C57;}
	.st27{fill:#28B9CB;}
	.st28{fill:#6F3773;}
	.st29{fill:#687231;}
	.st30{fill:#E43425;}
	.st31{fill:#9F7D2D;}
	.st32{fill:#FAC7C1;}
	.st33{fill:#3C3082;}
	.st34{fill:#2F2F7F;}
	.st35{fill:#474A2F;}
	.st36{fill:#9D2378;}
	.st37{fill:#1ABECB;}
	.st38{fill:#F7941D;}
	.st39{fill:#F7931E;}
	.st40{fill:#6B7840;}
	.st41{fill:#70417B;}
	.st42{fill:#99CA47;}
	.st43{fill:#9C2584;}
	.st44{fill:#00A361;}
	.st45{fill:#F49200;}
	.st46{fill:#A2C72D;}
	.st47{fill:#A07D23;}
	.st48{fill:#E93081;}
	.st49{fill:#9D3828;}
	.st50{fill:#3CA4DD;}
	.st51{fill:#F9C6C1;}
	.st52{fill:#54939C;}
	.st53{fill:#FFEF00;}
	.st54{fill:#E82F81;}
	.st55{fill:#9E1779;}
	.st56{fill:#9E1777;}
	.st57{fill:#3EA4DD;}
	.st58{fill:#3D2F82;}
	.st59{fill:#158F41;}
	.st60{fill:#6E3282;}
</style>
<title>developperJunior</title>
<g>
	<rect x="0.9" y="29.9" class="st0" width="3.2" height="14.1"/>
	<polygon class="st1" points="2.5,28.3 11.9,28.3 11.9,31.6 4.1,31.6 	"/>
	<path class="st2" d="M2.5,28.3c-0.9,0-1.6,0.7-1.6,1.6s0.7,1.6,1.6,1.6h1.6V30C4.1,29.1,3.4,28.3,2.5,28.3L2.5,28.3z"/>
	<rect x="4.1" y="35.4" class="st3" width="6.4" height="3.2"/>
	<path class="st4" d="M4.1,35.4H2.5c-0.9,0.1-1.6,0.9-1.5,1.8c0.1,0.8,0.7,1.4,1.5,1.5h1.6V35.4z"/>
	<circle class="st5" cx="2.5" cy="44.1" r="1.6"/>
	<circle class="st6" cx="2.5" cy="30" r="1.6"/>
	<path class="st7" d="M10.5,29.9c0-0.9,0.7-1.6,1.6-1.6c0.9,0,1.6,0.7,1.6,1.6s-0.7,1.6-1.6,1.6l0,0C11.3,31.6,10.5,30.8,10.5,29.9
		L10.5,29.9z"/>
	<circle class="st8" cx="10.5" cy="37" r="1.6"/>
	<path class="st9" d="M28,33.2c-5.9-2.1-8.6,1.9-8.6,5.3c0.1,0.9,0.9,1.6,1.8,1.5c0.8-0.1,1.4-0.7,1.5-1.5l0,0
		c0-0.4,0.2-2.1,1.5-2.5c0.9-0.2,1.9-0.1,2.7,0.3L28,33.2z"/>
	<circle class="st10" cx="27.5" cy="34.8" r="1.6"/>
	<path class="st11" d="M22.7,44.1v-9.8c0-0.9-0.7-1.6-1.6-1.6l0,0c-0.9,0-1.6,0.7-1.6,1.6v9.8H22.7z"/>
	<path class="st12" d="M22.3,33.3c-1.8,1.1-3,3.1-2.9,5.2c0.1,0.9,0.9,1.6,1.8,1.5c0.8-0.1,1.4-0.7,1.5-1.5l0,0v-4.2
		C22.7,33.9,22.6,33.5,22.3,33.3L22.3,33.3z"/>
	<circle class="st13" cx="21.1" cy="44.1" r="1.6"/>
	<path class="st14" d="M43.9,39.3c0-0.3-0.1-0.7-0.2-1c-0.1-0.3-0.3-0.6-0.5-0.9c-0.4-0.6-1-1-1.6-1.3c-0.5-0.2-0.9-0.3-1.4-0.3
		c-0.4,0-0.7,0.1-1.1,0.2c-0.4,0.1-0.7,0.3-1,0.4c-0.6,0.4-1,0.9-1.3,1.6c-0.2,0.4-0.3,0.9-0.3,1.4h-3.2c0-0.7,0.1-1.4,0.3-2
		s0.5-1.2,0.9-1.8c0.7-1.1,1.8-1.9,3-2.4c0.8-0.3,1.8-0.5,2.7-0.5l0,0c2.7,0,5.2,1.6,6.3,4.1c0.4,0.8,0.5,1.7,0.5,2.6L43.9,39.3z"/>
	<path class="st15" d="M47.1,39.3c-0.1,0.9-0.9,1.6-1.8,1.5c-0.8-0.1-1.4-0.7-1.5-1.5l0,0c-0.1,2-1.8,3.6-3.8,3.5
		c-1.9-0.1-3.4-1.6-3.5-3.5l0,0c-0.1,0.9-0.9,1.6-1.8,1.5c-0.8-0.1-1.4-0.7-1.5-1.5c0,3.8,3.1,6.8,6.9,6.8l0,0
		C44,46.1,47.1,43.1,47.1,39.3L47.1,39.3z"/>
	<path class="st16" d="M35,37.7c-0.9,0-1.6,0.7-1.6,1.6l0,0c0.1,0.9,0.9,1.6,1.8,1.5c0.8-0.1,1.4-0.7,1.5-1.5l0,0
		C36.6,38.4,35.9,37.7,35,37.7L35,37.7z"/>
	<path class="st17" d="M45.5,37.7c-0.9,0-1.6,0.7-1.6,1.6l0,0l0,0c0.1,0.9,0.9,1.6,1.8,1.5c0.8-0.1,1.4-0.7,1.5-1.5l0,0
		C47.1,38.4,46.4,37.7,45.5,37.7z"/>
	<path class="st14" d="M54.4,45.7c-0.9,0-1.6-0.7-1.6-1.6v-10c-0.1-0.9,0.6-1.7,1.5-1.8s1.7,0.6,1.8,1.5c0,0.1,0,0.2,0,0.3v10
		C56.1,44.9,55.3,45.7,54.4,45.7L54.4,45.7z"/>
	<path class="st18" d="M64.7,38.3c-0.1-3.3-2.8-5.9-6-5.8c-1,0-1.9,0.3-2.8,0.8c0.1,0.3,0.2,0.5,0.2,0.8v4.2c0-2.9,4.3-3.6,5.2-0.8
		c0.1,0.2,0.1,0.5,0.1,0.8H64.7z"/>
	<path class="st19" d="M55.8,33.2c-1.3,0.7-2.3,1.9-2.8,3.3c-0.2,0.6-0.3,1.1-0.3,1.7c0.1,0.9,0.9,1.6,1.8,1.5
		c0.8-0.1,1.4-0.7,1.5-1.5V34C56.1,33.8,56,33.5,55.8,33.2z"/>
	<rect x="61.4" y="38.3" class="st13" width="3.2" height="5.9"/>
	<path class="st20" d="M63,36.7c-0.9,0-1.6,0.7-1.6,1.6l0,0l0,0c0.1,0.9,0.9,1.6,1.8,1.5c0.8-0.1,1.4-0.7,1.5-1.5l0,0
		C64.7,37.4,63.9,36.7,63,36.7z"/>
	<circle class="st9" cx="63" cy="44.1" r="1.6"/>
	<circle class="st16" cx="54.4" cy="44.1" r="1.6"/>
	<path class="st21" d="M76.2,29.2v11.9c0,1.3,0.8,1.5,2.1,1.3l0.5,3.2C75,46.2,73,44,72.9,41V29.2H76.2z"/>
	<path class="st22" d="M78.4,32.2h-2.2v3.3h2.2V32.2z M72.9,32.2h-1c-0.9-0.1-1.7,0.6-1.8,1.5c-0.1,0.9,0.6,1.7,1.5,1.8
		c0.1,0,0.2,0,0.3,0h1V32.2z"/>
	<polygon class="st23" points="76.2,32.2 72.9,32.2 72.9,35.5 76.2,35.5 	"/>
	<path class="st9" d="M72.9,29.2c0-0.9,0.7-1.6,1.6-1.6s1.6,0.7,1.6,1.6s-0.7,1.6-1.6,1.6l0,0C73.7,30.8,72.9,30.1,72.9,29.2z"/>
	<circle class="st16" cx="78.4" cy="33.8" r="1.6"/>
	<circle class="st11" cx="78.5" cy="44" r="1.6"/>
	<path class="st13" d="M89.1,44.3c0,0.9-0.7,1.6-1.6,1.6s-1.6-0.7-1.6-1.6s0.7-1.6,1.6-1.6l0,0C88.3,42.7,89.1,43.4,89.1,44.3
		L89.1,44.3z"/>
	<polygon class="st17" points="95.2,30 95.2,44.1 98.4,42.4 98.4,30 	"/>
	<polygon class="st16" points="98.4,31.6 106.2,31.6 106.2,28.3 96.8,28.3 	"/>
	<path class="st24" d="M96.8,28.3c-0.9,0-1.6,0.7-1.6,1.6s0.7,1.6,1.6,1.6h1.6V30C98.4,29.1,97.7,28.3,96.8,28.3L96.8,28.3z"/>
	<polygon class="st14" points="96.8,45.7 106.2,45.7 106.2,42.4 98.4,42.4 	"/>
	<path class="st24" d="M98.4,42.4h-1.6c-0.9,0-1.6,0.7-1.6,1.6c0,0.9,0.7,1.6,1.6,1.6l0,0c0.9,0,1.6-0.7,1.6-1.6V42.4L98.4,42.4z"/>
	<rect x="98.4" y="35.4" class="st18" width="6.4" height="3.2"/>
	<path class="st25" d="M98.4,35.4h-1.6c-0.9,0.1-1.6,0.9-1.5,1.8c0.1,0.8,0.7,1.4,1.5,1.5h1.6V35.4z"/>
	<circle class="st11" cx="106.2" cy="44.1" r="1.6"/>
	<circle class="st26" cx="96.8" cy="29.9" r="1.6"/>
	<circle class="st13" cx="96.8" cy="44.1" r="1.6"/>
	<circle class="st10" cx="106.2" cy="30" r="1.6"/>
	<circle class="st21" cx="104.8" cy="37" r="1.6"/>
	<path class="st14" d="M115.5,45.7c-0.9,0-1.6-0.7-1.6-1.6v-10c-0.1-0.9,0.6-1.7,1.5-1.8s1.7,0.6,1.8,1.5c0,0.1,0,0.2,0,0.3v10
		C117.1,44.9,116.4,45.7,115.5,45.7L115.5,45.7z"/>
	<path class="st18" d="M125.7,38.3c-0.1-3.3-2.8-5.9-6-5.8c-1,0-1.9,0.3-2.8,0.8c0.2,0.3,0.2,0.5,0.2,0.8v4.2c0-2.9,4.3-3.6,5.2-0.8
		c0.1,0.2,0.1,0.5,0.1,0.8H125.7z"/>
	<path class="st19" d="M116.9,33.2c-1.9,1-3,2.9-3,5.1c0.1,0.9,0.9,1.6,1.8,1.5c0.8-0.1,1.4-0.7,1.5-1.5v-4.2
		C117.1,33.8,117,33.5,116.9,33.2L116.9,33.2z"/>
	<rect x="122.4" y="38.3" class="st13" width="3.2" height="5.9"/>
	<path class="st20" d="M124.1,36.7c-0.9,0-1.6,0.7-1.6,1.6l0,0l0,0c0.1,0.9,0.9,1.6,1.8,1.5c0.8-0.1,1.4-0.7,1.5-1.5l0,0
		C125.7,37.4,125,36.7,124.1,36.7z"/>
	<circle class="st9" cx="124.1" cy="44.1" r="1.6"/>
	<circle class="st16" cx="115.5" cy="44.1" r="1.6"/>
	<rect x="141.4" y="29.4" class="st27" width="3.2" height="14.7"/>
	<path class="st18" d="M141.4,33.6c-3-1.9-7-1-9,2c-2,3.1-1.2,7.3,1.9,9.3c1.1,0.7,2.3,1.1,3.6,1.1s2.6-0.4,3.6-1.1L141.4,33.6z
		 M137.9,42.7L137.9,42.7c-1.9,0-3.4-1.6-3.3-3.4c-0.1-1.8,1.4-3.4,3.2-3.4c1.1,0,2.2,0.5,2.9,1.5c1.1,1.6,0.6,3.7-0.9,4.8
		C139.2,42.4,138.6,42.6,137.9,42.7z"/>
	<path class="st28" d="M141.4,33.6c0,11.5-0.1,10.8,0.1,11.3c3.1-2.1,3.9-6.3,1.7-9.4C142.8,34.7,142.2,34,141.4,33.6z"/>
	<circle class="st10" cx="143.1" cy="29.4" r="1.6"/>
	<circle class="st14" cx="143.1" cy="44.1" r="1.6"/>
	<rect x="7.1" y="84.8" class="st22" width="2.6" height="8"/>
	<path class="st14" d="M2.3,94.1c0.6,0.8,1.6,1.3,2.5,1.1c1.5,0,2.3-0.6,2.3-2.4h2.6c0,3.1-1.8,5-4.9,5c-1.7,0.1-3.4-0.6-4.5-2
		L2.3,94.1z"/>
	<path class="st29" d="M8.4,91.5c-0.7,0-1.3,0.6-1.3,1.3l0,0c-0.1,0.7,0.5,1.4,1.2,1.4C9,94.3,9.7,93.7,9.7,93c0-0.1,0-0.2,0-0.2
		l0,0C9.7,92.1,9.1,91.5,8.4,91.5L8.4,91.5z"/>
	<path class="st30" d="M7.1,84.8c0-0.7,0.6-1.3,1.3-1.3s1.3,0.6,1.3,1.3c0,0.7-0.6,1.3-1.3,1.3l0,0C7.7,86.2,7.1,85.6,7.1,84.8z"/>
	<path class="st17" d="M0,95c0-0.7,0.6-1.3,1.3-1.3s1.3,0.6,1.3,1.3c0,0.7-0.6,1.3-1.3,1.3l0,0C0.6,96.3,0,95.7,0,95z"/>
	<path class="st13" d="M36.7,87.1c0.7,0,1.3,0.6,1.3,1.3l0,0v8.1c0,0.7-0.6,1.3-1.3,1.3s-1.3-0.6-1.3-1.3v-8.1
		C35.4,87.6,36,87.1,36.7,87.1L36.7,87.1L36.7,87.1z"/>
	<path class="st14" d="M28.4,93.1c0,2.7,2.2,4.8,4.9,4.7c0.8,0,1.6-0.2,2.3-0.6c-0.1-0.2-0.2-0.4-0.2-0.7v-3.4
		c-0.1,1.2-1.1,2.1-2.3,2.1c-0.9,0-1.6-0.6-1.9-1.5c-0.1-0.2-0.1-0.4-0.1-0.6H28.4z"/>
	<path class="st31" d="M35.6,97.2c0.6-0.4,1.2-0.8,1.6-1.5c0.3-0.4,0.5-0.8,0.6-1.2c0.1-0.5,0.2-0.9,0.2-1.4c0-0.7-0.6-1.3-1.3-1.3
		s-1.3,0.6-1.3,1.3l0,0v3.4C35.4,96.7,35.5,97,35.6,97.2L35.6,97.2z"/>
	<rect x="28.4" y="88.3" class="st16" width="2.6" height="4.8"/>
	<path class="st20" d="M29.8,94.4c0.7,0,1.3-0.6,1.3-1.3l0,0l0,0c0.1-0.7-0.5-1.4-1.2-1.4s-1.4,0.5-1.4,1.2c0,0.1,0,0.2,0,0.2l0,0
		C28.4,93.8,29,94.4,29.8,94.4z"/>
	<path class="st27" d="M28.4,88.4c0-0.7,0.6-1.3,1.3-1.3c0.7,0,1.3,0.6,1.3,1.3c0,0.7-0.6,1.3-1.3,1.3l0,0
		C29,89.7,28.4,89.1,28.4,88.4z"/>
	<path class="st17" d="M35.4,88.4c0-0.7,0.6-1.3,1.3-1.3s1.3,0.6,1.3,1.3c0,0.7-0.6,1.3-1.3,1.3S35.4,89.1,35.4,88.4L35.4,88.4z"/>
	<path class="st14" d="M58.1,97.7c-0.7,0-1.3-0.6-1.3-1.3l0,0v-8.1c0-0.7,0.6-1.3,1.3-1.3s1.3,0.6,1.3,1.3v8.1
		C59.4,97.1,58.8,97.7,58.1,97.7L58.1,97.7z"/>
	<path class="st18" d="M66.4,91.7c0-2.7-2.2-4.8-4.9-4.7c-0.8,0-1.6,0.2-2.3,0.6c0.1,0.2,0.2,0.4,0.2,0.7v3.4
		c0.1-1.2,1.1-2.1,2.3-2.1c0.9,0,1.7,0.6,2,1.5c0.1,0.2,0.1,0.4,0.1,0.6H66.4z"/>
	<path class="st19" d="M59.2,87.6C58.6,88,58,88.5,57.6,89c-0.3,0.4-0.5,0.8-0.6,1.2c-0.1,0.5-0.2,0.9-0.2,1.4
		c0,0.7,0.6,1.3,1.3,1.3s1.3-0.6,1.3-1.3v-3.4C59.4,88,59.3,87.8,59.2,87.6L59.2,87.6z"/>
	<rect x="63.8" y="91.7" class="st13" width="2.6" height="4.8"/>
	<path class="st20" d="M65.1,90.3c-0.7,0-1.3,0.6-1.3,1.3l0,0l0,0c0,0.7,0.6,1.3,1.3,1.3s1.3-0.6,1.3-1.3l0,0
		C66.4,90.9,65.8,90.3,65.1,90.3L65.1,90.3z"/>
	<path class="st9" d="M63.8,96.4c0-0.7,0.6-1.3,1.3-1.3s1.3,0.6,1.3,1.3c0,0.7-0.6,1.3-1.3,1.3l0,0C64.3,97.7,63.8,97.1,63.8,96.4z"
		/>
	<path class="st16" d="M56.8,96.4c0-0.7,0.6-1.3,1.3-1.3s1.3,0.6,1.3,1.3c0,0.7-0.6,1.3-1.3,1.3l0,0C57.4,97.7,56.8,97.1,56.8,96.4z
		"/>
	<rect x="85.5" y="88.4" class="st11" width="2.6" height="8"/>
	<path class="st14" d="M85.5,84.4c0-0.7,0.6-1.3,1.3-1.3c0.7,0,1.3,0.6,1.3,1.3s-0.6,1.3-1.3,1.3l0,0C86.1,85.7,85.5,85.1,85.5,84.4
		z"/>
	<path class="st26" d="M85.5,96.4c0-0.7,0.6-1.3,1.3-1.3c0.7,0,1.3,0.6,1.3,1.3c0,0.7-0.6,1.3-1.3,1.3l0,0
		C86.1,97.7,85.5,97.1,85.5,96.4z"/>
	<path class="st32" d="M85.5,88.4c0-0.7,0.6-1.3,1.3-1.3s1.3,0.6,1.3,1.3c0,0.7-0.6,1.3-1.3,1.3S85.5,89.1,85.5,88.4L85.5,88.4z"/>
	<path class="st14" d="M115.6,92.5c0-0.3,0-0.6-0.1-0.8c-0.1-0.3-0.2-0.5-0.4-0.8c-0.6-0.8-1.5-1.3-2.5-1.3c-0.3,0-0.6,0-0.9,0.1
		s-0.5,0.2-0.8,0.4c-0.8,0.5-1.3,1.4-1.3,2.4H107c0-0.6,0.1-1.1,0.3-1.6c0.2-0.5,0.4-1,0.7-1.4c0.6-0.9,1.5-1.6,2.5-2
		c0.7-0.3,1.4-0.4,2.2-0.4l0,0c0.6,0,1.1,0.1,1.7,0.3c1.6,0.5,2.8,1.6,3.5,3.1c0.3,0.7,0.4,1.4,0.4,2.2L115.6,92.5z"/>
	<path class="st15" d="M118.3,92.5c0.1,0.7-0.5,1.4-1.2,1.4c-0.7,0.1-1.4-0.5-1.4-1.2c0-0.1,0-0.2,0-0.2l0,0
		c-0.3,1.6-1.8,2.8-3.4,2.5c-1.3-0.2-2.3-1.2-2.5-2.5l0,0c0,0.7-0.6,1.3-1.3,1.3s-1.3-0.6-1.3-1.3c0,3.1,2.5,5.5,5.6,5.5l0,0l0,0
		C115.7,98,118.2,95.6,118.3,92.5L118.3,92.5z"/>
	<path class="st16" d="M108.4,91.2c-0.7,0-1.3,0.6-1.3,1.3l0,0c0,0.7,0.6,1.3,1.3,1.3s1.3-0.6,1.3-1.3l0,0
		C109.7,91.8,109.1,91.2,108.4,91.2L108.4,91.2L108.4,91.2z"/>
	<path class="st17" d="M116.9,91.2c-0.7,0-1.3,0.6-1.3,1.3l0,0c-0.1,0.7,0.5,1.4,1.2,1.4c0.7,0.1,1.4-0.5,1.4-1.2c0-0.1,0-0.2,0-0.2
		l0,0C118.3,91.8,117.7,91.2,116.9,91.2L116.9,91.2L116.9,91.2z"/>
	<path class="st9" d="M143.9,87.6c-4.8-1.7-7,1.5-7,4.3c0,0.7,0.6,1.3,1.3,1.3s1.3-0.6,1.3-1.3l0,0c0-0.4,0.2-1.7,1.2-2
		c0.7-0.1,1.5,0,2.2,0.3L143.9,87.6z"/>
	<path class="st10" d="M142.2,88.8c0-0.7,0.6-1.3,1.3-1.3s1.3,0.6,1.3,1.3c0,0.7-0.6,1.3-1.3,1.3S142.2,89.5,142.2,88.8L142.2,88.8z
		"/>
	<path class="st11" d="M139.6,96.4v-8c0-0.3-0.1-0.6-0.3-0.8c-0.3-0.3-0.6-0.5-1.1-0.5c-0.7,0-1.3,0.6-1.3,1.3l0,0v8H139.6z"/>
	<path class="st12" d="M139.3,87.6c-1.5,0.9-2.4,2.5-2.4,4.2c0,0.7,0.6,1.3,1.3,1.3s1.3-0.6,1.3-1.3l0,0v-3.4
		C139.6,88.1,139.5,87.8,139.3,87.6L139.3,87.6z"/>
	<path class="st13" d="M137,96.4c0-0.7,0.6-1.3,1.3-1.4c0.7,0,1.3,0.6,1.4,1.3c0,0.7-0.6,1.3-1.3,1.4C137.6,97.7,137,97.1,137,96.4
		L137,96.4z"/>
	<path class="st9" d="M15.7,15.1c0,0.1-0.1,0.3-0.2,0.4c-0.1,0.1-0.1,0.2-0.2,0.3c-1.7,1.6-3.8,2.4-6.1,2.4c-0.9,0-1.8-0.1-2.7-0.4
		c-0.8-0.3-1.6-0.6-2.4-1.1c-1.4-1-2.6-2.3-3.2-3.9c-0.5-1.1-0.7-2.3-0.7-3.5c0-0.9,0.7-1.6,1.6-1.6s1.6,0.7,1.6,1.6
		c0,0.6,0.1,1.2,0.3,1.7s0.4,1,0.7,1.5c0.6,0.9,1.5,1.6,2.5,2.1C7.7,14.9,8.4,15,9.2,15c1.5,0,2.8-0.6,3.9-1.6l0.1-0.1l0,0
		c0.1-0.1,0.3-0.2,0.4-0.2c0.1,0,0.1,0,0.2-0.1c0.1,0,0.1,0,0.2-0.1h0.3c0.4,0,0.7,0.1,1,0.4c0.1,0,0.1,0.1,0.2,0.2
		c0.1,0.1,0.1,0.1,0.2,0.2c0.1,0.2,0.2,0.4,0.3,0.6C15.9,14.6,15.9,14.9,15.7,15.1L15.7,15.1z"/>
	<path class="st33" d="M15.3,2.8c-0.3-0.3-0.7-0.4-1.1-0.4c-0.9,0-1.6,0.8-1.6,1.6c0,0.4,0.2,0.8,0.5,1.1c-1.1-1-2.5-1.6-3.9-1.6
		C8.6,3.6,8,3.7,7.5,3.8C5.9,4.4,4.6,5.5,3.9,7.1C3.6,7.8,3.5,8.5,3.5,9.3c0-0.9-0.7-1.6-1.6-1.6C1,7.7,0.2,8.4,0.2,9.3
		c0-0.9,0.1-1.8,0.4-2.7C0.9,5.8,1.3,5,1.8,4.3C4.1,0.8,8.7-0.6,12.6,1C13.6,1.4,14.5,2,15.3,2.8z"/>
	<path class="st17" d="M3.5,9.3c0,0.9-0.7,1.6-1.6,1.6s-1.6-0.7-1.6-1.6c0-0.9,0.7-1.6,1.6-1.6l0,0C2.8,7.7,3.5,8.4,3.5,9.3z"/>
	<path class="st17" d="M15.9,4c0,0.1,0,0.2,0,0.3v0.1c0,0.1,0,0.1-0.1,0.2c0,0.1-0.1,0.2-0.1,0.3c0,0.1-0.1,0.2-0.2,0.2
		c-0.1,0.1-0.2,0.2-0.3,0.2C15.1,5.4,15,5.4,15,5.4c-0.1,0-0.2,0.1-0.3,0.1s-0.3,0-0.4,0.1c-0.1,0-0.2,0-0.3,0h-0.1l-0.2-0.1
		c-0.1,0-0.2-0.1-0.3-0.1c-0.1-0.1-0.2-0.1-0.3-0.2c-0.6-0.7-0.6-1.7,0.1-2.3c0.3-0.3,0.7-0.4,1.1-0.4c0.4,0,0.8,0.1,1.1,0.4l0,0
		C15.5,3,15.6,3,15.7,3.1C15.8,3.4,15.9,3.7,15.9,4z"/>
	<path class="st34" d="M3.5,9.3c0,0.9-0.7,1.6-1.6,1.6s-1.6-0.7-1.6-1.6c0-0.9,0.7-1.6,1.6-1.6l0,0C2.8,7.7,3.5,8.4,3.5,9.3z"/>
	<path class="st11" d="M15.9,4c0,0.1,0,0.2,0,0.3v0.1c0,0.1,0,0.1-0.1,0.2c0,0.1-0.1,0.2-0.1,0.3c0,0.1-0.1,0.2-0.2,0.2
		c-0.1,0.1-0.2,0.2-0.3,0.2c-0.2,0.1-0.3,0.2-0.5,0.2c-0.1,0-0.3,0-0.4,0.1c-0.1,0-0.2,0-0.3,0h-0.1l-0.2-0.1
		c-0.1,0-0.2-0.1-0.3-0.1c-0.1-0.1-0.2-0.1-0.3-0.2c-0.6-0.7-0.6-1.7,0.1-2.3c0.3-0.3,0.7-0.4,1.1-0.4c0.4,0,0.8,0.1,1.1,0.4l0,0
		C15.5,3,15.6,3,15.7,3.1C15.8,3.4,15.9,3.7,15.9,4z"/>
	<circle class="st16" cx="14.2" cy="14.6" r="1.6"/>
	<path class="st14" d="M3.5,9.3c0,0.9-0.7,1.6-1.6,1.6s-1.6-0.7-1.6-1.6c0-0.9,0.7-1.6,1.6-1.6l0,0C2.8,7.7,3.5,8.4,3.5,9.3z"/>
	<rect x="18.8" y="6.6" class="st11" width="3.2" height="9.8"/>
	<circle class="st14" cx="20.4" cy="1.6" r="1.6"/>
	<circle class="st26" cx="20.4" cy="16.4" r="1.6"/>
	<circle class="st32" cx="20.4" cy="6.6" r="1.6"/>
	<path class="st14" d="M26.5,18c-0.9,0-1.6-0.7-1.6-1.6v-10c0.1-0.9,0.9-1.6,1.8-1.5c0.8,0.1,1.4,0.7,1.5,1.5v10
		C28.1,17.3,27.4,18,26.5,18L26.5,18z"/>
	<path class="st18" d="M36.7,10.6c-0.1-3.3-2.8-5.9-6.1-5.8c-1,0-1.9,0.3-2.7,0.8c0.2,0.3,0.2,0.5,0.2,0.8v4.2
		c0-2.9,4.3-3.6,5.2-0.8c0.1,0.2,0.1,0.5,0.1,0.8H36.7z"/>
	<path class="st19" d="M27.9,5.5c-1.3,0.7-2.3,1.9-2.7,3.3c-0.2,0.6-0.3,1.1-0.3,1.7c-0.1,0.9,0.6,1.7,1.5,1.8s1.7-0.6,1.8-1.5
		c0-0.1,0-0.2,0-0.3V6.4C28.1,6.1,28,5.8,27.9,5.5"/>
	<rect x="33.5" y="10.6" class="st13" width="3.2" height="5.9"/>
	<path class="st20" d="M35.1,8.9c-0.9,0-1.6,0.7-1.6,1.6l0,0c-0.1,0.9,0.6,1.7,1.5,1.8s1.7-0.6,1.8-1.5c0-0.1,0-0.2,0-0.3l0,0
		C36.7,9.7,36,8.9,35.1,8.9"/>
	<circle class="st9" cx="35.1" cy="16.4" r="1.6"/>
	<circle class="st16" cx="26.5" cy="16.4" r="1.6"/>
	<rect x="49.2" y="1.7" class="st27" width="3.2" height="14.7"/>
	<path class="st18" d="M49.2,5.9c-1-0.7-2.3-1-3.5-1c-2.2,0-4.3,1.1-5.5,3c-2.1,3.1-1.2,7.2,1.9,9.3c1.1,0.7,2.3,1.1,3.6,1.1
		s2.6-0.4,3.6-1.1L49.2,5.9z M45.8,15L45.8,15c-1.9,0-3.4-1.6-3.3-3.4l0,0c-0.1-1.8,1.3-3.4,3.2-3.4c1.2,0,2.3,0.5,2.9,1.5
		c1.1,1.6,0.6,3.7-0.9,4.8C47,14.8,46.4,15,45.8,15"/>
	<path class="st28" d="M49.2,5.9c0,11.5,0,10.8,0.1,11.2c3.1-2.1,3.9-6.3,1.7-9.4C50.6,7,50,6.3,49.2,5.9"/>
	<circle class="st10" cx="50.9" cy="1.7" r="1.6"/>
	<circle class="st14" cx="50.9" cy="16.4" r="1.6"/>
	<path class="st13" d="M54.7,7.6l5,7.7l1.7-3.4l-4-6.1L54.7,7.6z M63,15.9L63,15.9L63,15.9"/>
	
		<rect x="53.8" y="12.5" transform="matrix(0.4478 -0.8941 0.8941 0.4478 21.6242 63.2842)" class="st33" width="16.5" height="3.2"/>
	<path class="st35" d="M61.4,11.9l-1.7,3.4l0.5,0.8c0.5,0.7,1.5,1,2.3,0.5c0.2-0.2,0.4-0.4,0.5-0.6l0,0c0.2-0.5,0.2-1.1-0.1-1.6
		L61.4,11.9"/>
	<circle class="st11" cx="56" cy="6.7" r="1.6"/>
	<circle class="st9" cx="65.8" cy="6.7" r="1.6"/>
	<circle class="st14" cx="58.4" cy="21.5" r="1.6"/>
	<path class="st9" d="M95.6,14.7c0,0.4-0.2,0.8-0.5,1.1l0,0c-0.8,0.8-1.8,1.4-2.8,1.8c-1.1,0.4-2.2,0.7-3.4,0.6
		c-0.9,0-1.8-0.1-2.7-0.4c-0.8-0.3-1.6-0.6-2.3-1.1c-2.5-1.6-4-4.4-4-7.4c0-0.9,0.7-1.6,1.6-1.6s1.6,0.7,1.6,1.6
		c0,0.6,0.1,1.2,0.3,1.7c0.5,1.6,1.7,2.9,3.2,3.6c0.7,0.3,1.5,0.5,2.2,0.4c0.7,0,1.5-0.1,2.1-0.4c0.6-0.3,1.2-0.6,1.7-1.1
		c0.1-0.1,0.2-0.1,0.2-0.2c0.1-0.1,0.2-0.1,0.3-0.1c0,0,0.1,0,0.2-0.1c0.1,0,0.1,0,0.2-0.1h0.3c0.7,0,1.2,0.4,1.5,1
		c0,0.1,0,0.1,0,0.2c0,0.1,0,0.1,0,0.2C95.5,14.5,95.5,14.6,95.6,14.7z"/>
	<path class="st25" d="M92.8,2.9c-0.3,0.3-0.5,0.7-0.5,1.1s0.2,0.8,0.5,1.1C92.3,4.6,91.7,4.2,91,4c-0.7-0.3-1.4-0.4-2.2-0.4
		c-0.6,0-1.1,0.1-1.7,0.3c-0.5,0.2-1,0.4-1.5,0.7c-0.9,0.6-1.6,1.5-2.1,2.5C83.2,7.8,83,8.6,83,9.3c0-0.9-0.7-1.6-1.6-1.6
		s-1.6,0.7-1.6,1.6c0-0.9,0.1-1.8,0.4-2.7C80.6,5.8,81,5,81.5,4.3c2.8-4.1,8.3-5.2,12.4-2.4c0.4,0.3,0.8,0.6,1.2,1
		C94.5,2.2,93.5,2.3,92.8,2.9z"/>
	<circle class="st17" cx="81.6" cy="9.3" r="1.6"/>
	<path class="st17" d="M95.6,4c0,0.1,0,0.2,0,0.3c0,0.1,0,0.1,0,0.2s0,0.1,0,0.2S95.5,4.9,95.5,5s-0.1,0.2-0.2,0.2
		c-0.1,0.1-0.2,0.2-0.3,0.2c-0.1,0.1-0.2,0.1-0.2,0.1c-0.1,0-0.2,0.1-0.3,0.1c-0.1,0-0.3,0-0.4,0.1c-0.1,0-0.2,0-0.3,0
		c-0.1,0-0.1,0-0.2-0.1c-0.1,0-0.1,0-0.2,0s-0.2-0.1-0.3-0.1c0-0.1-0.1-0.2-0.1-0.2c-0.6-0.6-0.7-1.7,0-2.3c0.6-0.6,1.7-0.7,2.3,0
		l0,0c0,0,0,0,0.1,0.1c0.2,0.2,0.3,0.4,0.4,0.7C95.7,3.8,95.6,3.9,95.6,4z"/>
	<circle class="st34" cx="81.6" cy="9.3" r="1.6"/>
	<path class="st11" d="M95.6,4c0,0.1,0,0.2,0,0.3c0,0.1,0,0.1,0,0.2s0,0.1,0,0.2S95.5,4.9,95.5,5s-0.1,0.2-0.2,0.2
		c-0.1,0.1-0.2,0.2-0.3,0.2c-0.2,0.1-0.3,0.2-0.5,0.2c-0.1,0-0.3,0-0.4,0.1c-0.1,0-0.2,0-0.3,0c-0.1,0-0.1,0-0.2-0.1
		c-0.1,0-0.1,0-0.2,0s-0.2-0.1-0.3-0.1c-0.1-0.1-0.2-0.1-0.2-0.2c-0.6-0.6-0.7-1.7,0-2.3c0.6-0.6,1.7-0.7,2.3,0l0,0c0,0,0,0,0.1,0.1
		c0.2,0.2,0.3,0.4,0.4,0.7C95.7,3.8,95.6,3.9,95.6,4z"/>
	<circle class="st16" cx="93.9" cy="14.6" r="1.6"/>
	<circle class="st14" cx="81.6" cy="9.3" r="1.6"/>
	<path class="st14" d="M108.6,11.7c0-0.3-0.1-0.7-0.2-1s-0.3-0.6-0.5-0.9c-0.4-0.6-1-1-1.6-1.3c-0.5-0.2-0.9-0.3-1.4-0.3
		c-0.4,0-0.7,0.1-1.1,0.2c-0.4,0.1-0.7,0.2-1,0.4c-0.6,0.4-1,0.9-1.3,1.6c-0.2,0.4-0.3,0.9-0.3,1.3H98c0-2.8,1.7-5.3,4.2-6.3
		c0.8-0.3,1.8-0.5,2.7-0.5l0,0c0.7,0,1.4,0.1,2,0.3c1.9,0.6,3.5,2,4.3,3.8c0.4,0.8,0.5,1.7,0.5,2.6L108.6,11.7z"/>
	<path class="st15" d="M111.9,11.7c-0.1,0.9-0.9,1.6-1.8,1.5c-0.8-0.1-1.4-0.7-1.5-1.5l0,0c0,2-1.6,3.6-3.7,3.6
		c-2,0-3.6-1.6-3.6-3.6l0,0c0,0.9-0.7,1.6-1.6,1.6s-1.6-0.7-1.6-1.6c0,3.8,3.1,6.8,6.9,6.8l0,0C108.8,18.5,111.9,15.4,111.9,11.7
		L111.9,11.7"/>
	<path class="st16" d="M99.7,10c-0.9,0-1.6,0.7-1.6,1.6l0,0c0,0.9,0.7,1.6,1.6,1.6s1.6-0.7,1.6-1.6l0,0C101.3,10.7,100.6,10,99.7,10
		"/>
	<path class="st17" d="M110.3,10c-0.9,0-1.6,0.7-1.6,1.6l0,0c0.1,0.9,0.9,1.6,1.8,1.5c0.8-0.1,1.4-0.7,1.5-1.5l0,0
		C111.9,10.7,111.2,10,110.3,10"/>
	<path class="st36" d="M120.9,18.1c-0.4,0.1-0.7,0.1-1.1,0.1c-2.4,0.2-4.5-1.6-4.7-4c0-0.2,0-0.5,0-0.7V1.7h3.2v12
		c0,0.4,0.1,0.7,0.3,1c0.5,0.3,1.2,0.4,1.8,0.3L120.9,18.1z"/>
	<circle class="st26" cx="120.7" cy="16.5" r="1.6"/>
	<circle class="st14" cx="116.7" cy="1.6" r="1.6"/>
	<rect x="124.6" y="6.6" class="st11" width="3.2" height="9.8"/>
	<circle class="st14" cx="126.3" cy="1.6" r="1.6"/>
	<circle class="st26" cx="126.3" cy="16.4" r="1.6"/>
	<circle class="st32" cx="126.3" cy="6.6" r="1.6"/>
	<path class="st14" d="M132.3,18c-0.9,0-1.6-0.7-1.6-1.6l0,0v-10c0-0.9,0.7-1.6,1.6-1.6c0.9,0,1.6,0.7,1.6,1.6v10
		C134,17.2,133.2,18,132.3,18L132.3,18z"/>
	<path class="st18" d="M142.5,10.6c-0.1-3.3-2.8-5.8-6.1-5.8c-1,0-1.9,0.3-2.8,0.8c0.2,0.3,0.2,0.5,0.2,0.8v4.2
		c0-2.9,4.4-3.6,5.2-0.8c0.1,0.2,0.1,0.5,0.1,0.8H142.5z"/>
	<path class="st19" d="M133.7,5.5c-0.8,0.4-1.5,1-2,1.8c-0.3,0.5-0.6,1-0.8,1.5c-0.2,0.6-0.3,1.1-0.3,1.7c0,0.9,0.7,1.6,1.6,1.6
		c0.9,0,1.6-0.7,1.6-1.6l0,0V6.3C133.9,6.1,133.8,5.8,133.7,5.5"/>
	<rect x="139.3" y="10.6" class="st13" width="3.2" height="5.9"/>
	<path class="st20" d="M140.9,8.9c-0.9,0-1.6,0.7-1.6,1.6l0,0c0,0.9,0.7,1.6,1.6,1.6c0.9,0,1.6-0.7,1.6-1.6l0,0l0,0
		C142.5,9.7,141.8,8.9,140.9,8.9"/>
	<circle class="st9" cx="140.9" cy="16.4" r="1.6"/>
	<circle class="st16" cx="132.3" cy="16.4" r="1.6"/>
	<g>
		<g>
			<path class="st37" d="M4.5,69.4"/>
			<path class="st37" d="M4.5,67.8V55.3c0-0.9-0.7-1.6-1.6-1.6s-1.6,0.7-1.6,1.6v14.1L4.5,67.8z"/>
			<path class="st38" d="M17.4,62.3c0-1.2-0.2-2.3-0.6-3.3c-0.3-0.8-0.7-1.5-1.2-2.1c-0.7-1-1.7-1.8-2.8-2.4
				c-1.1-0.6-2.4-0.9-3.7-0.9c0,0,0,0,0,0H2.9c-0.9,0-1.6,0.7-1.6,1.6s0.7,1.6,1.6,1.6h1.6h4.7c0.8,0,1.4,0.2,2,0.4
				c0.4,0.2,0.8,0.5,1.2,0.8c0.5,0.5,1,1.1,1.3,1.8c0.3,0.7,0.5,1.5,0.5,2.4h0c0,0,0,0,0,0c0,0.9,0.7,1.6,1.6,1.6
				C16.7,64,17.4,63.2,17.4,62.3C17.4,62.3,17.4,62.3,17.4,62.3L17.4,62.3z"/>
			<path class="st39" d="M14.1,62.3c0-0.9,0.7-1.6,1.6-1.6c0.9,0,1.6,0.7,1.6,1.6c0,0.9-0.7,1.6-1.6,1.6
				C14.9,64,14.1,63.2,14.1,62.3L14.1,62.3z"/>
			<path class="st40" d="M2.9,53.6c-0.9,0-1.6,0.7-1.6,1.6s0.7,1.6,1.6,1.6h1.6v-1.6C4.5,54.4,3.8,53.6,2.9,53.6"/>
			<path class="st6" d="M17.4,62.3C17.4,62.3,17.4,62.3,17.4,62.3C17.4,62.3,17.4,62.3,17.4,62.3c0-0.9-0.7-1.6-1.6-1.6
				c-0.9,0-1.6,0.7-1.6,1.6c0,0,0,0,0,0c0,3-1.9,5.4-4.9,5.4c-0.7,0-5.6,0-6.3,0c-0.9,0-1.6,0.7-1.6,1.6S2,71,2.9,71h6.3
				c0,0,0,0,0,0C13.9,71,17.4,67.2,17.4,62.3C17.4,62.3,17.4,62.3,17.4,62.3C17.4,62.3,17.4,62.3,17.4,62.3L17.4,62.3z"/>
			<path class="st41" d="M4.5,67.8H2.9c-0.9,0-1.6,0.7-1.6,1.6C1.2,70.3,2,71,2.9,71l0,0c0.9,0,1.6-0.7,1.6-1.6L4.5,67.8"/>
			<path class="st42" d="M15.8,60.7c-0.9,0-1.6,0.7-1.6,1.6l0,0c0,0.9,0.7,1.6,1.6,1.6s1.6-0.7,1.6-1.6l0,0
				C17.4,61.4,16.7,60.7,15.8,60.7"/>
			<path class="st43" d="M1.2,55.2c0-0.9,0.7-1.6,1.6-1.6s1.6,0.7,1.6,1.6s-0.7,1.6-1.6,1.6S1.2,56.1,1.2,55.2L1.2,55.2z"/>
			<path class="st44" d="M1.2,69.4c0-0.9,0.7-1.6,1.6-1.6s1.6,0.7,1.6,1.6c0,0.9-0.7,1.6-1.6,1.6S1.2,70.3,1.2,69.4L1.2,69.4z"/>
		</g>
		<g>
			<path class="st45" d="M24.5,64.5L24.5,64.5c0,0.6,0.1,1.1,0.3,1.6c0.2,0.5,0.5,0.8,0.8,1.1c0.2,0.2,0.5,0.4,0.8,0.5
				c0.4,0.2,1,0.3,1.6,0.3c0,0,0,0,0,0c0.4,0,0.9-0.1,1.3-0.3c0.4-0.2,0.8-0.4,1.2-0.7l2.2,2.4c-0.6,0.6-1.4,1-2.1,1.3
				c-0.8,0.3-1.6,0.5-2.5,0.5c0,0,0,0,0,0c-0.9,0-1.7-0.1-2.4-0.4c-0.7-0.2-1.4-0.6-2-1.1c-0.4-0.3-0.7-0.7-1-1.1
				c-0.4-0.5-0.7-1.1-0.9-1.7c-0.3-0.8-0.4-1.7-0.4-2.6H24.5z"/>
			<path class="st46" d="M27.8,57.8C27.8,57.8,27.8,57.8,27.8,57.8C27.7,57.8,27.7,57.8,27.8,57.8c-3.6,0-6.5,3-6.5,6.8l0,0h0h3.2
				c0-2,1.5-3.5,3.3-3.5c1.4,0,2.5,0.7,3,1.9l3.6,1.6C34.3,60.8,31.6,57.8,27.8,57.8"/>
			<path class="st47" d="M22.9,62.9c-0.9,0-1.6,0.7-1.6,1.6h0c0,0.9,0.7,1.6,1.6,1.6c0.9,0,1.6-0.7,1.6-1.6
				C24.5,63.6,23.8,62.9,22.9,62.9"/>
			<path class="st48" d="M30.8,62.9"/>
			<path class="st48" d="M30.8,62.9h-3.7c-0.9,0-1.6,0.7-1.6,1.6s0.7,1.6,1.6,1.6h5.6L30.8,62.9z"/>
			<path class="st49" d="M32.7,62.9h-1.9c0,0,0,0,0,0c0.2,0.5,0.3,1,0.3,1.6c0,0.9,0.7,1.6,1.6,1.6l0,0c0.9,0,1.6-0.7,1.6-1.6l0,0
				C34.3,63.6,33.6,62.9,32.7,62.9"/>
			<path class="st50" d="M30,68.3c0-0.9,0.7-1.6,1.6-1.6c0.9,0,1.6,0.7,1.6,1.6c0,0.9-0.7,1.6-1.6,1.6S30,69.2,30,68.3L30,68.3z"/>
		</g>
		<g>
			<polygon class="st51" points="46,70.1 50.7,60.3 47.8,58.9 44.5,65.6 			"/>
			<polygon class="st22" points="44.5,65.6 41.3,58.9 38.4,60.3 43.1,70.1 			"/>
			<path class="st52" d="M44.5,65.6l1.5,3c0.7,1.5-1.1,3-2.5,2c-0.6-0.4-0.8-1.3-0.5-2L44.5,65.6"/>
			<path class="st53" d="M38.2,59.6c0-0.9,0.7-1.6,1.6-1.6s1.6,0.7,1.6,1.6c0,0.9-0.7,1.6-1.6,1.6C39,61.3,38.2,60.5,38.2,59.6
				L38.2,59.6z"/>
			<circle class="st54" cx="44.5" cy="69.4" r="1.6"/>
			<path class="st55" d="M47.6,59.6c0-0.9,0.7-1.6,1.6-1.6c0.9,0,1.6,0.7,1.6,1.6c0,0.9-0.7,1.6-1.6,1.6S47.6,60.5,47.6,59.6
				L47.6,59.6z"/>
		</g>
		<g>
			<path class="st45" d="M57.5,64.5L57.5,64.5c0,0.6,0.1,1.1,0.3,1.6c0.2,0.5,0.5,0.8,0.8,1.1c0.2,0.2,0.5,0.4,0.8,0.5
				c0.4,0.2,1,0.3,1.6,0.3c0,0,0,0,0,0c0.4,0,0.9-0.1,1.3-0.3c0.4-0.2,0.8-0.4,1.2-0.7l2.2,2.4c-0.6,0.6-1.4,1-2.1,1.3
				c-0.8,0.3-1.6,0.5-2.5,0.5c0,0,0,0,0,0c-0.9,0-1.7-0.1-2.4-0.4c-0.7-0.2-1.4-0.6-2-1.1c-0.4-0.3-0.7-0.7-1-1.1
				c-0.4-0.5-0.7-1.1-0.9-1.7c-0.3-0.8-0.4-1.7-0.4-2.6H57.5z"/>
			<path class="st46" d="M60.8,57.8C60.8,57.8,60.8,57.8,60.8,57.8C60.7,57.8,60.7,57.8,60.8,57.8c-3.6,0-6.5,3-6.5,6.8l0,0h0h3.2
				c0-2,1.5-3.5,3.3-3.5c1.4,0,2.5,0.7,3,1.9l3.6,1.6C67.3,60.8,64.6,57.8,60.8,57.8"/>
			<path class="st47" d="M55.9,62.9c-0.9,0-1.6,0.7-1.6,1.6h0c0,0.9,0.7,1.6,1.6,1.6s1.6-0.7,1.6-1.6C57.5,63.6,56.8,62.9,55.9,62.9
				"/>
			<path class="st48" d="M63.8,62.9"/>
			<path class="st48" d="M63.8,62.9h-3.7c-0.9,0-1.6,0.7-1.6,1.6s0.7,1.6,1.6,1.6h5.6L63.8,62.9z"/>
			<path class="st49" d="M65.7,62.9h-1.9c0,0,0,0,0,0c0.2,0.5,0.3,1,0.3,1.6c0,0.9,0.7,1.6,1.6,1.6l0,0c0.9,0,1.6-0.7,1.6-1.6l0,0
				C67.3,63.6,66.6,62.9,65.7,62.9"/>
			<path class="st50" d="M63,68.3c0-0.9,0.7-1.6,1.6-1.6c0.9,0,1.6,0.7,1.6,1.6c0,0.9-0.7,1.6-1.6,1.6C63.7,70,63,69.2,63,68.3
				L63,68.3z"/>
		</g>
		<g>
			<path class="st56" d="M77.8,71.1c-0.4,0.1-0.8,0.1-1.1,0.1c-1.4,0-2.5-0.4-3.4-1.2c-1.3-1.3-1.3-3-1.3-3.5V54.6h3.2v12l0,0
				c0,0.2,0,0.7,0.3,1c0.3,0.3,0.9,0.4,1.8,0.3L77.8,71.1z"/>
			<circle class="st26" cx="77.5" cy="69.5" r="1.6"/>
			<path class="st45" d="M72,54.6c0-0.9,0.7-1.6,1.6-1.6c0.9,0,1.6,0.7,1.6,1.6s-0.7,1.6-1.6,1.6C72.7,56.3,72,55.5,72,54.6L72,54.6
				z"/>
		</g>
		<g>
			<path class="st45" d="M92.8,64.6c0-0.4-0.1-0.7-0.2-1c-0.1-0.3-0.3-0.6-0.5-0.9c-0.4-0.6-0.9-1-1.6-1.3c-0.4-0.2-0.9-0.3-1.4-0.3
				c-0.4,0-0.8,0.1-1.1,0.2c-0.3,0.1-0.7,0.3-1,0.5c-0.6,0.4-1,0.9-1.3,1.6c-0.2,0.4-0.3,0.9-0.3,1.4l0,0h-3.2c0-0.7,0.1-1.4,0.3-2
				c0.2-0.6,0.5-1.2,0.9-1.8c0.7-1.1,1.8-1.9,3-2.4c0.8-0.3,1.7-0.5,2.7-0.5c0,0,0,0,0,0c0.7,0,1.4,0.1,2,0.3
				c0.6,0.2,1.3,0.5,1.8,0.8c1.1,0.7,2,1.8,2.5,3c0.4,0.8,0.5,1.7,0.5,2.7L92.8,64.6z"/>
			<path class="st57" d="M96,64.6c0,0.9-0.7,1.6-1.6,1.6s-1.6-0.7-1.6-1.6l0,0c0,2-1.6,3.5-3.6,3.5c-2,0-3.6-1.6-3.6-3.5l0,0
				c0,0.9-0.7,1.6-1.6,1.6c-0.9,0-1.6-0.7-1.6-1.6c0,3.7,3.1,6.8,6.9,6.8c0,0,0,0,0,0C92.9,71.4,96,68.4,96,64.6"/>
			<path class="st55" d="M83.9,63c-0.9,0-1.6,0.7-1.6,1.6l0,0c0,0.9,0.7,1.6,1.6,1.6s1.6-0.7,1.6-1.6l0,0C85.5,63.7,84.8,63,83.9,63
				"/>
			<path class="st58" d="M94.4,63c-0.9,0-1.6,0.7-1.6,1.6l0,0c0,0.9,0.7,1.6,1.6,1.6c0.9,0,1.6-0.7,1.6-1.6l0,0
				C96,63.7,95.3,63,94.4,63"/>
		</g>
		<g>
			<polyline class="st50" points="101.2,60 101.2,74.7 104.5,74.7 104.5,60 			"/>
			<path class="st46" d="M107.8,58.3c-1.3,0-2.5,0.4-3.5,1c0.1,0.2,0.2,0.5,0.2,0.7v10.5c1,0.6,2.1,0.9,3.3,0.9
				c3.6,0,6.6-2.9,6.6-6.6C114.4,61.3,111.4,58.3,107.8,58.3 M107.8,68.2c-1.8,0-3.3-1.5-3.3-3.3c0-1.8,1.5-3.3,3.3-3.3
				c1.8,0,3.3,1.5,3.3,3.3C111.2,66.7,109.7,68.2,107.8,68.2"/>
			<path class="st59" d="M104.3,59.3c-1.8,1.2-3.1,3.2-3.1,5.5c0,2.4,1.3,4.5,3.2,5.6V60C104.5,59.8,104.4,59.5,104.3,59.3"/>
			<circle class="st45" cx="102.9" cy="74.7" r="1.6"/>
			<path class="st55" d="M101.2,60c0-0.9,0.7-1.6,1.6-1.6s1.6,0.7,1.6,1.6s-0.7,1.6-1.6,1.6S101.2,60.9,101.2,60L101.2,60z"/>
		</g>
		<g>
			<path class="st45" d="M121.5,64.5L121.5,64.5c0,0.6,0.1,1.1,0.3,1.6c0.2,0.5,0.5,0.8,0.8,1.1c0.2,0.2,0.5,0.4,0.8,0.5
				c0.4,0.2,1,0.3,1.6,0.3c0,0,0,0,0,0c0.4,0,0.9-0.1,1.3-0.3c0.4-0.2,0.8-0.4,1.2-0.7l2.2,2.4c-0.6,0.6-1.4,1-2.1,1.3
				c-0.8,0.3-1.6,0.5-2.5,0.5c0,0,0,0,0,0c-0.9,0-1.7-0.1-2.4-0.4c-0.7-0.2-1.4-0.6-2-1.1c-0.4-0.3-0.7-0.7-1-1.1
				c-0.4-0.5-0.7-1.1-0.9-1.7c-0.3-0.8-0.4-1.7-0.4-2.6H121.5z"/>
			<path class="st46" d="M124.8,57.8C124.8,57.8,124.8,57.8,124.8,57.8C124.7,57.8,124.7,57.8,124.8,57.8c-3.6,0-6.5,3-6.5,6.8l0,0
				h0h3.2c0-2,1.5-3.5,3.3-3.5c1.4,0,2.5,0.7,3,1.9l3.6,1.6C131.3,60.8,128.6,57.8,124.8,57.8"/>
			<path class="st47" d="M119.9,62.9c-0.9,0-1.6,0.7-1.6,1.6h0c0,0.9,0.7,1.6,1.6,1.6s1.6-0.7,1.6-1.6
				C121.5,63.6,120.8,62.9,119.9,62.9"/>
			<path class="st48" d="M127.8,62.9"/>
			<path class="st48" d="M127.8,62.9h-3.7c-0.9,0-1.6,0.7-1.6,1.6s0.7,1.6,1.6,1.6h5.6L127.8,62.9z"/>
			<path class="st49" d="M129.7,62.9h-1.9c0,0,0,0,0,0c0.2,0.5,0.3,1,0.3,1.6c0,0.9,0.7,1.6,1.6,1.6l0,0c0.9,0,1.6-0.7,1.6-1.6l0,0
				C131.3,63.6,130.6,62.9,129.7,62.9"/>
			<path class="st50" d="M127,68.3c0-0.9,0.7-1.6,1.6-1.6s1.6,0.7,1.6,1.6c0,0.9-0.7,1.6-1.6,1.6C127.7,70,127,69.2,127,68.3
				L127,68.3z"/>
		</g>
		<g>
			<path class="st50" d="M143.8,58.5c-5.9-2.1-8.6,1.9-8.6,5.2c0,0.9,0.7,1.6,1.6,1.6c0.9,0,1.6-0.7,1.6-1.6l0,0
				c0-0.4,0.2-2.1,1.5-2.5c0.8-0.3,1.9,0,2.7,0.3L143.8,58.5z"/>
			<circle class="st53" cx="143.3" cy="60.1" r="1.6"/>
			<path class="st54" d="M138.5,69.4v-9.6v-0.3c0-0.4-0.1-0.7-0.3-1c-0.3-0.4-0.8-0.7-1.3-0.7c-0.9,0-1.6,0.7-1.6,1.6v3.9v6
				L138.5,69.4"/>
			<path class="st60" d="M138.1,58.6c-2,1-2.9,3.2-2.9,5.2c0,0.9,0.7,1.6,1.6,1.6c0.9,0,1.6-0.7,1.6-1.6h0c0,0,0-4.2,0-4.2
				C138.5,59.2,138.4,58.8,138.1,58.6"/>
			<path class="st46" d="M135.2,69.4c0-0.9,0.7-1.6,1.6-1.6s1.6,0.7,1.6,1.6c0,0.9-0.7,1.6-1.6,1.6S135.2,70.3,135.2,69.4
				L135.2,69.4z"/>
		</g>
	</g>
</g>
</svg>
