<?xml version="1.0" encoding="utf-8"?>
<!-- Generator: Adobe Illustrator 22.1.0, SVG Export Plug-In . SVG Version: 6.00 Build 0)  -->
<svg version="1.1" id="Calque_1" xmlns="http://www.w3.org/2000/svg" xmlns:xlink="http://www.w3.org/1999/xlink" x="0px" y="0px"
	 viewBox="0 0 136 86.3" style="enable-background:new 0 0 136 86.3;" xml:space="preserve">
<style type="text/css">
	.st0{fill:#3D2F82;}
	.st1{fill:#9E1779;}
	.st2{fill:#382272;}
	.st3{fill:#F49200;}
	.st4{fill:#E93081;}
	.st5{fill:#422373;}
	.st6{fill:#E82F81;}
	.st7{fill:#009C57;}
	.st8{fill:#A2C72D;}
	.st9{fill:#FFEF00;}
	.st10{fill:#A26439;}
	.st11{fill:#E5200C;}
	.st12{fill:#9D3828;}
	.st13{fill:#3CA4DD;}
</style>
<g>
	<g>
	</g>
</g>
<g>
	<g>
		<polyline class="st0" points="7.6,10.4 7.6,73.9 22.2,66.6 22.2,10.4 		"/>
		<polygon class="st1" points="22.2,17.7 57.3,17.7 57.3,3.1 14.9,3.1 		"/>
		<path class="st2" d="M14.9,3.1c-4,0-7.3,3.3-7.3,7.3c0,4,3.3,7.3,7.3,7.3h7.3v-7.3C22.2,6.4,19,3.1,14.9,3.1"/>
		<polygon class="st3" points="14.9,81.2 57.3,81.2 57.3,66.6 22.2,66.6 		"/>
		<path class="st2" d="M22.2,66.6h-7.3c-4,0-7.3,3.3-7.3,7.3c0,4,3.3,7.3,7.3,7.3l0,0c4,0,7.3-3.3,7.3-7.3V66.6"/>
		<polyline class="st4" points="51.1,49.4 22.2,49.4 22.2,34.8 51.1,34.8 		"/>
		<path class="st5" d="M22.2,34.8h-7.3c-4,0-7.3,3.3-7.3,7.3c0,4,3.3,7.3,7.3,7.3h7.3V34.8"/>
		<path class="st6" d="M50,73.9c0-4,3.3-7.3,7.3-7.3c4,0,7.3,3.3,7.3,7.3c0,4-3.3,7.3-7.3,7.3S50,77.9,50,73.9L50,73.9z"/>
		<path class="st7" d="M7.6,10.3c0-4,3.3-7.3,7.3-7.3s7.3,3.3,7.3,7.3s-3.3,7.3-7.3,7.3S7.6,14.3,7.6,10.3L7.6,10.3z"/>
		<path class="st8" d="M7.6,73.9c0-4,3.3-7.3,7.3-7.3s7.3,3.3,7.3,7.3c0,4-3.3,7.3-7.3,7.3S7.6,77.9,7.6,73.9L7.6,73.9z"/>
		<path class="st9" d="M50,10.4c0-4,3.3-7.3,7.3-7.3c4,0,7.3,3.3,7.3,7.3c0,4-3.3,7.3-7.3,7.3S50,14.4,50,10.4L50,10.4z"/>
		<path class="st10" d="M43.8,42.1c0-4,3.3-7.3,7.3-7.3s7.3,3.3,7.3,7.3c0,4-3.3,7.3-7.3,7.3S43.8,46.2,43.8,42.1L43.8,42.1z"/>
	</g>
	<g>
		<path class="st3" d="M84.5,81.1c-4,0-7.3-3.3-7.3-7.3v-45c0-4,3.3-7.3,7.3-7.3s7.3,3.3,7.3,7.3v45C91.7,77.9,88.5,81.1,84.5,81.1
			L84.5,81.1z"/>
		<path class="st4" d="M130.5,47.8c0-20.1-22.1-32.5-39.8-22.7c0.7,1.1,1,2.4,1,3.8v19c0-13,19.6-16.1,23.6-3.4
			c0.3,1.1,0.5,2.2,0.5,3.4C117.7,47.8,128.6,47.8,130.5,47.8L130.5,47.8z"/>
		<path class="st11" d="M90.7,25.1c-3.6,2-6.6,4.7-8.9,8c-1.5,2.1-2.6,4.4-3.4,6.9c-0.8,2.5-1.2,5.1-1.2,7.8c0,4,3.3,7.3,7.3,7.3
			c4,0,7.3-3.3,7.3-7.3v-19C91.7,27.4,91.4,26.2,90.7,25.1"/>
		<rect x="115.9" y="47.8" class="st8" width="14.6" height="26.7"/>
		<path class="st12" d="M123.2,40.5c-4,0-7.3,3.3-7.3,7.3l0,0c0,4,3.3,7.3,7.3,7.3c4,0,7.3-3.3,7.3-7.3l0,0
			C130.5,43.7,127.2,40.5,123.2,40.5"/>
		<path class="st13" d="M115.9,73.9c0-4,3.3-7.3,7.3-7.3s7.3,3.3,7.3,7.3c0,4-3.3,7.3-7.3,7.3C119.1,81.2,115.9,77.9,115.9,73.9
			L115.9,73.9z"/>
		<path class="st1" d="M77.2,73.9c0-4,3.3-7.3,7.3-7.3c4,0,7.3,3.3,7.3,7.3c0,4-3.3,7.3-7.3,7.3C80.4,81.2,77.2,77.9,77.2,73.9
			L77.2,73.9z"/>
	</g>
</g>
<g>
	<g>
	</g>
</g>
</svg>
