<?xml version="1.0" encoding="utf-8"?>
<!-- Generator: Adobe Illustrator 22.0.1, SVG Export Plug-In . SVG Version: 6.00 Build 0)  -->
<svg version="1.1" id="Layer_1" xmlns="http://www.w3.org/2000/svg" xmlns:xlink="http://www.w3.org/1999/xlink" x="0px" y="0px"
	 viewBox="0 0 69.5 29.5" style="enable-background:new 0 0 69.5 29.5;" xml:space="preserve">
<style type="text/css">
	.st0{fill:#3D2F82;}
	.st1{fill:#9E1A79;}
	.st2{fill:#382871;}
	.st3{fill:#F39207;}
	.st4{fill:#E83181;}
	.st5{fill:#412771;}
	.st6{fill:#E83081;}
	.st7{fill:#009C56;}
	.st8{fill:#A1C62F;}
	.st9{fill:#FCEA21;}
	.st10{fill:#A26439;}
	.st11{fill:#E42413;}
	.st12{fill:#9D3828;}
	.st13{fill:#3EA4DC;}
	.st14{fill:#148F40;}
	.st15{fill:#532679;}
	.st16{fill:#9E1A77;}
	.st17{fill:#F9C7C1;}
	.st18{fill:#40A4DC;}
	.st19{fill:#A07D21;}
	.st20{fill:#442B38;}
	.st21{fill:#E53312;}
	.st22{fill:#791614;}
	.st23{fill:#F8C6C1;}
	.st24{fill:#2CB8CB;}
	.st25{fill:#55939C;}
	.st26{fill:#6E3282;}
</style>
<g>
	<g>
		<polyline class="st0" points="3,2.6 3,13.1 5.5,11.9 5.5,2.6 		"/>
		<polygon class="st1" points="5.5,3.8 11.3,3.8 11.3,1.3 4.2,1.3 		"/>
		<path class="st2" d="M4.2,1.3C3.6,1.3,3,1.9,3,2.6c0,0.7,0.5,1.2,1.2,1.2h1.2V2.6C5.5,1.9,4.9,1.3,4.2,1.3"/>
		<polygon class="st3" points="4.2,14.4 11.3,14.4 11.3,11.9 5.5,11.9 		"/>
		<path class="st2" d="M5.5,11.9H4.2c-0.7,0-1.2,0.5-1.2,1.2c0,0.7,0.5,1.2,1.2,1.2l0,0c0.7,0,1.2-0.5,1.2-1.2V11.9"/>
		<polyline class="st4" points="10.3,9.1 5.5,9.1 5.5,6.6 10.3,6.6 		"/>
		<path class="st5" d="M5.5,6.6H4.2C3.6,6.6,3,7.2,3,7.8s0.5,1.2,1.2,1.2h1.2V6.6"/>
		<path class="st6" d="M10.1,13.1c0-0.7,0.5-1.2,1.2-1.2c0.7,0,1.2,0.5,1.2,1.2s-0.5,1.2-1.2,1.2S10.1,13.8,10.1,13.1L10.1,13.1z"/>
		<path class="st7" d="M3,2.5c0-0.7,0.5-1.2,1.2-1.2c0.7,0,1.2,0.5,1.2,1.2c0,0.7-0.5,1.2-1.2,1.2S3,3.2,3,2.5L3,2.5z"/>
		<path class="st8" d="M3,13.1c0-0.7,0.5-1.2,1.2-1.2c0.7,0,1.2,0.5,1.2,1.2s-0.5,1.2-1.2,1.2S3,13.8,3,13.1L3,13.1z"/>
		<path class="st9" d="M10.1,2.6c0-0.7,0.5-1.2,1.2-1.2c0.7,0,1.2,0.5,1.2,1.2c0,0.7-0.5,1.2-1.2,1.2S10.1,3.2,10.1,2.6L10.1,2.6z"
			/>
		<path class="st10" d="M9,7.8c0-0.7,0.5-1.2,1.2-1.2c0.7,0,1.2,0.5,1.2,1.2s-0.5,1.2-1.2,1.2S9,8.5,9,7.8L9,7.8z"/>
	</g>
	<g>
		<path class="st3" d="M14.9,14.3c-0.7,0-1.2-0.5-1.2-1.2V5.6c0-0.7,0.5-1.2,1.2-1.2c0.7,0,1.2,0.5,1.2,1.2v7.5
			C16.1,13.8,15.6,14.3,14.9,14.3L14.9,14.3z"/>
		<path class="st4" d="M22.6,8.8c0-3.4-3.7-5.4-6.6-3.8c0.1,0.2,0.2,0.4,0.2,0.6v3.2c0-2.2,3.3-2.7,3.9-0.6c0.1,0.2,0.1,0.4,0.1,0.6
			C20.4,8.8,22.3,8.8,22.6,8.8L22.6,8.8z"/>
		<path class="st11" d="M15.9,5c-0.6,0.3-1.1,0.8-1.5,1.3c-0.2,0.3-0.4,0.7-0.6,1.1c-0.1,0.4-0.2,0.9-0.2,1.3c0,0.7,0.5,1.2,1.2,1.2
			c0.7,0,1.2-0.5,1.2-1.2V5.6C16.1,5.4,16,5.2,15.9,5"/>
		<rect x="20.1" y="8.8" class="st8" width="2.4" height="4.5"/>
		<path class="st12" d="M21.3,7.6c-0.7,0-1.2,0.5-1.2,1.2l0,0c0,0.7,0.5,1.2,1.2,1.2c0.7,0,1.2-0.5,1.2-1.2l0,0
			C22.6,8.1,22,7.6,21.3,7.6"/>
		<path class="st13" d="M20.1,13.1c0-0.7,0.5-1.2,1.2-1.2c0.7,0,1.2,0.5,1.2,1.2s-0.5,1.2-1.2,1.2S20.1,13.8,20.1,13.1L20.1,13.1z"
			/>
		<path class="st1" d="M13.7,13.1c0-0.7,0.5-1.2,1.2-1.2s1.2,0.5,1.2,1.2s-0.5,1.2-1.2,1.2S13.7,13.8,13.7,13.1L13.7,13.1z"/>
	</g>
	<g>
		<path class="st13" d="M32,13.6L32,13.6L32,13.6L32,13.6L32,13.6L32,13.6c0,0,0,0.1,0,0.1c-0.1,0.8-0.7,1.6-1.6,1.8l0.6,2.4
			c1.8-0.4,2.9-1.7,3.3-3.4c0.2-0.7,0.1-0.6,0.1-4.9c0-0.9,0-1.8,0-2.4c0-0.3,0-0.6,0-0.8c0-0.2,0-0.3,0-0.3H32L32,13.6z"/>
		<path class="st8" d="M26.1,14.6c0.7,0,0.7,0.5,1.9,0.8c0.9,0.2,1.8,0.2,2.4,0.1l0.6,2.4c-1.6,0.4-4.1,0.2-5.7-1L26.1,14.6z"/>
		<path class="st14" d="M30.7,15.4c-0.1,0-0.2,0-0.3,0l0,0c-0.7,0.2-1.1,0.8-0.9,1.5c0.1,0.6,0.6,0.9,1.2,0.9c0.1,0,0.2,0,0.3,0
			c0,0,0,0,0,0c0.7-0.2,1.1-0.8,0.9-1.5C31.8,15.8,31.3,15.4,30.7,15.4"/>
		<path class="st1" d="M29.6,4.8c-3.5,0-5.9,3.4-4.5,6.4c1.2,2.5,4.5,3.5,7,2.1c0-0.6,0-2.2,0-3.8c-0.1,1.1-1.1,2-2.5,2l0,0
			c-0.9,0-1.6-0.4-2.1-1c-1.3-1.8,0.9-3.9,3.1-3.1c0.8,0.3,1.4,1,1.5,1.8c0-1.1,0-2,0-3.2h0c0-0.2,0-0.4,0.1-0.5
			C31.4,5.1,30.5,4.8,29.6,4.8 M34.5,9.2c0,0.1,0,0.3,0,0.4c0,0,0,0,0,0c0-0.1,0-0.1,0-0.2C34.5,9.3,34.5,9.3,34.5,9.2"/>
		<path class="st15" d="M32.2,5.5C32.1,5.7,32,5.9,32,6.1h0c0,0,0,0.1,0,0.3c0,0.5,0,1.7,0,2.9c0,0,0,0.1,0,0.1c0,0,0,0.1,0,0.1
			c0,1.6,0,3.2,0,3.8c0.6-0.3,1.2-0.8,1.6-1.3c0.3-0.4,0.5-0.8,0.6-1.2c0.1-0.4,0.2-0.8,0.2-1.2c0,0,0,0,0,0c0-0.1,0-0.3,0-0.4
			c0-0.6-0.2-1.1-0.4-1.6c-0.2-0.4-0.5-0.8-0.8-1.1C33,6.1,32.6,5.8,32.2,5.5"/>
		<path class="st8" d="M32,6.1c0-0.7,0.5-1.2,1.2-1.2c0.7,0,1.2,0.5,1.2,1.2s-0.5,1.2-1.2,1.2C32.6,7.3,32,6.8,32,6.1L32,6.1z"/>
		<circle class="st9" cx="26.1" cy="15.8" r="1.2"/>
	</g>
	<g>
		<path class="st16" d="M41.6,14.4c-0.3,0-0.6,0.1-0.8,0.1c-1.1,0-1.9-0.3-2.5-0.9c-1-1-1-2.3-1-2.6V2.1h2.4v9l0,0
			c0,0.1,0,0.5,0.2,0.7c0.2,0.2,0.7,0.3,1.4,0.2L41.6,14.4z"/>
		<circle class="st7" cx="41.4" cy="13.2" r="1.2"/>
		<path class="st3" d="M37.2,2.1c0-0.7,0.5-1.2,1.2-1.2s1.2,0.5,1.2,1.2c0,0.7-0.5,1.2-1.2,1.2S37.2,2.8,37.2,2.1L37.2,2.1z"/>
	</g>
	<g>
		<rect x="44" y="5.8" class="st6" width="2.4" height="7.4"/>
		<path class="st3" d="M44,2.1c0-0.7,0.5-1.2,1.2-1.2c0.7,0,1.2,0.5,1.2,1.2s-0.5,1.2-1.2,1.2C44.6,3.3,44,2.8,44,2.1L44,2.1z"/>
		<path class="st7" d="M44,13.1c0-0.7,0.5-1.2,1.2-1.2c0.7,0,1.2,0.5,1.2,1.2c0,0.7-0.5,1.2-1.2,1.2C44.6,14.4,44,13.8,44,13.1
			L44,13.1z"/>
		<path class="st17" d="M44,5.8c0-0.7,0.5-1.2,1.2-1.2c0.7,0,1.2,0.5,1.2,1.2S45.9,7,45.2,7C44.6,7,44,6.5,44,5.8L44,5.8z"/>
	</g>
	<g>
		<path class="st8" d="M56.4,11.5c0-2.8-3.5-3.1-4.3-3.4c-0.2-0.1-0.6-0.2-0.7-0.4c0,0,0,0,0-0.1l-2.4,0c0,1.8,1.5,2.6,3.2,3
			c0.4,0.1,1.6,0.4,1.8,0.7c0,0,0,0,0,0.1C54.3,11.5,56.1,11.5,56.4,11.5L56.4,11.5z"/>
		<path class="st8" d="M51.4,7.6"/>
		<path class="st3" d="M50.6,11.4c0.7,0.4,1.3,0.8,2.2,0.8c0.5,0,1.2-0.1,1.2-0.7h2.4c0,1.7-1.3,3.1-3.6,3.1c-1.4,0-2.5-0.4-3.6-1.2
			L50.6,11.4z"/>
		<path class="st18" d="M55.3,5.3c-0.4-0.2-0.7-0.4-1.1-0.5C51.7,3.9,49,4.9,49,7.5l2.4,0c0-0.3,0.1-0.7,1-0.7
			c1.2,0,1.7,0.7,2.3,0.7L55.3,5.3z"/>
		<path class="st14" d="M50.2,6.3c-0.7,0-1.2,0.5-1.2,1.2c0,0,0,0,0,0c0,0.7,0.5,1.2,1.2,1.2c0,0,0,0,0,0c0.7,0,1.2-0.6,1.2-1.2
			C51.4,6.9,50.9,6.3,50.2,6.3"/>
		<path class="st19" d="M54,11.5c0-0.7,0.5-1.2,1.2-1.2c0.7,0,1.2,0.5,1.2,1.2s-0.5,1.2-1.2,1.2C54.5,12.7,54,12.1,54,11.5L54,11.5z
			"/>
		<path class="st6" d="M53.6,6.3c0-0.7,0.5-1.2,1.2-1.2c0.7,0,1.2,0.5,1.2,1.2s-0.5,1.2-1.2,1.2S53.6,7,53.6,6.3L53.6,6.3z"/>
		<path class="st0" d="M48.7,12.4c0-0.7,0.5-1.2,1.2-1.2c0.7,0,1.2,0.5,1.2,1.2s-0.5,1.2-1.2,1.2C49.2,13.6,48.7,13.1,48.7,12.4
			L48.7,12.4z"/>
	</g>
	<g>
		<polyline class="st7" points="58.7,2.1 58.7,13.1 61.1,13.1 61.1,2.1 		"/>
		<path class="st1" d="M65.1,8.8c0-2.1-3-2.6-3.9-0.7c-0.1,0.2-0.2,0.5-0.2,0.7l0,0V4.9c2.9-1.5,6.4,0.6,6.5,3.9L65.1,8.8z"/>
		<path class="st20" d="M61.1,4.9c-0.7,0.3-1.2,0.8-1.7,1.4c-0.2,0.3-0.4,0.7-0.6,1.1c-0.1,0.4-0.2,0.9-0.2,1.3
			c0,0.7,0.5,1.2,1.2,1.2c0.7,0,1.2-0.5,1.2-1.2V4.9"/>
		<path class="st21" d="M67.6,13.1V8.8c0,0,0,0,0,0c0,0,0,0,0,0h0h-2.4v4.4"/>
		<path class="st22" d="M66.3,7.6c-0.7,0-1.2,0.5-1.2,1.2l0,0c0,0.7,0.5,1.2,1.2,1.2s1.2-0.5,1.2-1.2h0c0,0,0,0,0,0
			C67.6,8.1,67,7.6,66.3,7.6"/>
		<path class="st6" d="M58.7,2.1c0-0.7,0.5-1.2,1.2-1.2c0.7,0,1.2,0.5,1.2,1.2s-0.5,1.2-1.2,1.2C59.2,3.3,58.7,2.8,58.7,2.1
			L58.7,2.1z"/>
		<path class="st13" d="M65.1,13.1c0-0.7,0.5-1.2,1.2-1.2s1.2,0.5,1.2,1.2c0,0.7-0.5,1.2-1.2,1.2S65.1,13.8,65.1,13.1L65.1,13.1z"/>
		<path class="st8" d="M58.7,13.1c0-0.7,0.5-1.2,1.2-1.2c0.7,0,1.2,0.5,1.2,1.2c0,0.7-0.5,1.2-1.2,1.2
			C59.2,14.4,58.7,13.8,58.7,13.1L58.7,13.1z"/>
	</g>
	<g>
		<polygon class="st23" points="8.5,27.7 12,20.4 9.8,19.3 7.4,24.3 		"/>
		<polygon class="st24" points="7.4,24.3 5,19.3 2.8,20.4 6.3,27.7 		"/>
		<path class="st25" d="M7.4,24.3l1.1,2.3c0.6,1.2-0.8,2.3-1.8,1.5c-0.4-0.3-0.6-1-0.3-1.5L7.4,24.3"/>
		<circle class="st9" cx="3.9" cy="19.8" r="1.2"/>
		<circle class="st6" cx="7.4" cy="27.1" r="1.2"/>
		<path class="st1" d="M9.7,19.8c0-0.7,0.5-1.2,1.2-1.2s1.2,0.5,1.2,1.2S11.6,21,10.9,21S9.7,20.5,9.7,19.8L9.7,19.8z"/>
	</g>
	<g>
		<path class="st3" d="M15.1,23.5L15.1,23.5c0,0.5,0.1,0.9,0.2,1.2c0.1,0.3,0.4,0.6,0.6,0.9c0.2,0.2,0.4,0.3,0.6,0.4
			c0.3,0.1,0.7,0.2,1.2,0.2c0,0,0,0,0,0c0.3,0,0.6-0.1,1-0.2c0.3-0.1,0.6-0.3,0.9-0.5l1.6,1.8c-0.5,0.4-1,0.8-1.6,1
			c-0.6,0.2-1.2,0.4-1.9,0.4c0,0,0,0,0,0c-0.6,0-1.3-0.1-1.8-0.3c-0.6-0.2-1.1-0.5-1.5-0.8c-0.3-0.2-0.5-0.5-0.8-0.8
			c-0.3-0.4-0.5-0.8-0.7-1.3c-0.2-0.6-0.3-1.3-0.3-1.9L15.1,23.5z"/>
		<path class="st8" d="M17.6,18.4C17.6,18.4,17.6,18.4,17.6,18.4C17.6,18.4,17.6,18.4,17.6,18.4c-2.7,0-4.9,2.3-4.9,5.1l0,0h0h2.4
			c0-1.5,1.1-2.6,2.4-2.6c1.1,0,1.9,0.6,2.3,1.4l2.7,1.2C22.5,20.7,20.4,18.4,17.6,18.4"/>
		<path class="st19" d="M13.9,22.3c-0.7,0-1.2,0.5-1.2,1.2h0c0,0.7,0.5,1.2,1.2,1.2s1.2-0.5,1.2-1.2C15.1,22.8,14.6,22.3,13.9,22.3"
			/>
		<path class="st4" d="M19.8,22.3"/>
		<path class="st4" d="M19.8,22.3h-2.7c-0.7,0-1.2,0.5-1.2,1.2c0,0.7,0.5,1.2,1.2,1.2h4.2L19.8,22.3z"/>
		<path class="st12" d="M21.3,22.3h-1.5c0,0,0,0,0,0c0.1,0.3,0.2,0.8,0.2,1.2c0,0.7,0.5,1.2,1.2,1.2l0,0c0.7,0,1.2-0.5,1.2-1.2l0,0
			C22.5,22.8,22,22.3,21.3,22.3"/>
		<circle class="st13" cx="20.5" cy="26.3" r="1.2"/>
	</g>
	<g>
		<path class="st13" d="M31.1,19c-4.4-1.6-6.4,1.4-6.4,3.9c0,0.7,0.5,1.2,1.2,1.2c0.7,0,1.2-0.5,1.2-1.2l0,0c0-0.3,0.2-1.6,1.1-1.9
			c0.6-0.2,1.4,0,2,0.2L31.1,19z"/>
		<path class="st9" d="M29.5,20.2c0-0.7,0.5-1.2,1.2-1.2c0.7,0,1.2,0.5,1.2,1.2c0,0.7-0.5,1.2-1.2,1.2C30,21.4,29.5,20.8,29.5,20.2
			L29.5,20.2z"/>
		<path class="st6" d="M27.1,27.2V20v-0.2c0-0.3-0.1-0.5-0.2-0.7c-0.2-0.3-0.6-0.5-1-0.5c-0.7,0-1.2,0.5-1.2,1.2v2.9v4.5L27.1,27.2"
			/>
		<path class="st26" d="M26.9,19c-1.5,0.8-2.2,2.4-2.2,3.9c0,0.7,0.5,1.2,1.2,1.2c0.7,0,1.2-0.5,1.2-1.2h0c0,0,0-3.2,0-3.2
			C27.1,19.5,27,19.2,26.9,19"/>
		<circle class="st8" cx="25.9" cy="27.2" r="1.2"/>
	</g>
	<g>
		<path class="st8" d="M40.4,25.5c0-2.8-3.5-3.1-4.3-3.4c-0.2-0.1-0.6-0.2-0.7-0.4c0,0,0,0,0-0.1l-2.4,0c0,1.8,1.5,2.6,3.2,3
			c0.4,0.1,1.6,0.4,1.8,0.7c0,0,0,0,0,0.1C38.3,25.5,40.1,25.5,40.4,25.5L40.4,25.5z"/>
		<path class="st8" d="M35.4,21.6"/>
		<path class="st3" d="M34.6,25.4c0.7,0.4,1.3,0.8,2.2,0.8c0.5,0,1.2-0.1,1.2-0.7h2.4c0,1.7-1.3,3.1-3.6,3.1c-1.4,0-2.5-0.4-3.6-1.2
			L34.6,25.4z"/>
		<path class="st18" d="M39.3,19.3c-0.4-0.2-0.7-0.4-1.1-0.5c-2.5-0.9-5.2,0.1-5.2,2.8l2.4,0c0-0.3,0.1-0.7,1-0.7
			c1.2,0,1.7,0.7,2.3,0.7L39.3,19.3z"/>
		<path class="st14" d="M34.2,20.3c-0.7,0-1.2,0.5-1.2,1.2c0,0,0,0,0,0c0,0.7,0.5,1.2,1.2,1.2c0,0,0,0,0,0c0.7,0,1.2-0.6,1.2-1.2
			C35.4,20.9,34.9,20.3,34.2,20.3"/>
		<circle class="st19" cx="39.2" cy="25.5" r="1.2"/>
		<path class="st6" d="M37.6,20.3c0-0.7,0.5-1.2,1.2-1.2c0.7,0,1.2,0.5,1.2,1.2c0,0.7-0.5,1.2-1.2,1.2S37.6,21,37.6,20.3L37.6,20.3z
			"/>
		<circle class="st0" cx="33.9" cy="26.4" r="1.2"/>
	</g>
	<g>
		<rect x="43" y="19.8" class="st6" width="2.4" height="7.4"/>
		<path class="st3" d="M43,16.1c0-0.7,0.5-1.2,1.2-1.2c0.7,0,1.2,0.5,1.2,1.2c0,0.7-0.5,1.2-1.2,1.2C43.6,17.3,43,16.8,43,16.1
			L43,16.1z"/>
		<circle class="st7" cx="44.2" cy="27.1" r="1.2"/>
		<path class="st17" d="M43,19.8c0-0.7,0.5-1.2,1.2-1.2c0.7,0,1.2,0.5,1.2,1.2c0,0.7-0.5,1.2-1.2,1.2C43.6,21,43,20.5,43,19.8
			L43,19.8z"/>
	</g>
	<g>
		<path class="st3" d="M55.6,23.6c0-0.3,0-0.5-0.1-0.8c-0.1-0.2-0.2-0.5-0.3-0.7c-0.3-0.4-0.7-0.8-1.2-1c-0.3-0.1-0.7-0.2-1.1-0.2
			c-0.3,0-0.6,0-0.8,0.1c-0.3,0.1-0.5,0.2-0.7,0.3c-0.4,0.3-0.8,0.7-1,1.2c-0.1,0.3-0.2,0.7-0.2,1l0,0h-2.4c0-0.5,0.1-1,0.2-1.5
			c0.2-0.5,0.4-0.9,0.7-1.3c0.6-0.8,1.3-1.5,2.3-1.8c0.6-0.3,1.3-0.4,2-0.4c0,0,0,0,0,0c0.5,0,1,0.1,1.5,0.2
			c0.5,0.1,0.9,0.4,1.4,0.6c0.8,0.5,1.5,1.3,1.9,2.2c0.3,0.6,0.4,1.3,0.4,2L55.6,23.6z"/>
		<path class="st18" d="M58,23.6c0,0.7-0.5,1.2-1.2,1.2c-0.7,0-1.2-0.5-1.2-1.2l0,0c0,1.5-1.2,2.7-2.7,2.7c-1.5,0-2.7-1.2-2.7-2.7
			l0,0c0,0.7-0.5,1.2-1.2,1.2c-0.7,0-1.2-0.5-1.2-1.2c0,2.8,2.3,5.1,5.2,5.1c0,0,0,0,0,0C55.7,28.7,58,26.4,58,23.6"/>
		<path class="st1" d="M48.9,22.4c-0.7,0-1.2,0.5-1.2,1.2l0,0c0,0.7,0.5,1.2,1.2,1.2c0.7,0,1.2-0.5,1.2-1.2l0,0
			C50.1,22.9,49.6,22.4,48.9,22.4"/>
		<path class="st0" d="M56.8,22.4c-0.7,0-1.2,0.5-1.2,1.2l0,0c0,0.7,0.5,1.2,1.2,1.2c0.7,0,1.2-0.5,1.2-1.2l0,0
			C58,22.9,57.5,22.4,56.8,22.4"/>
	</g>
	<g>
		<path class="st3" d="M60.9,28.3c-0.7,0-1.2-0.5-1.2-1.2v-7.5c0-0.7,0.5-1.2,1.2-1.2c0.7,0,1.2,0.5,1.2,1.2v7.5
			C62.1,27.8,61.6,28.3,60.9,28.3L60.9,28.3z"/>
		<path class="st4" d="M68.6,22.8c0-3.4-3.7-5.4-6.6-3.8c0.1,0.2,0.2,0.4,0.2,0.6v3.2c0-2.2,3.3-2.7,3.9-0.6
			c0.1,0.2,0.1,0.4,0.1,0.6C66.4,22.8,68.3,22.8,68.6,22.8L68.6,22.8z"/>
		<path class="st11" d="M61.9,19c-0.6,0.3-1.1,0.8-1.5,1.3c-0.2,0.3-0.4,0.7-0.6,1.1c-0.1,0.4-0.2,0.9-0.2,1.3
			c0,0.7,0.5,1.2,1.2,1.2c0.7,0,1.2-0.5,1.2-1.2v-3.2C62.1,19.4,62,19.2,61.9,19"/>
		<rect x="66.1" y="22.8" class="st8" width="2.4" height="4.5"/>
		<path class="st12" d="M67.3,21.6c-0.7,0-1.2,0.5-1.2,1.2l0,0c0,0.7,0.5,1.2,1.2,1.2c0.7,0,1.2-0.5,1.2-1.2l0,0
			C68.6,22.1,68,21.6,67.3,21.6"/>
		<circle class="st13" cx="67.3" cy="27.1" r="1.2"/>
		<circle class="st1" cx="60.9" cy="27.1" r="1.2"/>
	</g>
</g>
<g>
	<g>
	</g>
</g>
<g>
	<g>
	</g>
</g>
</svg>
