<?xml version="1.0" encoding="utf-8"?>
<!-- Generator: Adobe Illustrator 22.1.0, SVG Export Plug-In . SVG Version: 6.00 Build 0)  -->
<svg version="1.1" id="Calque_1" xmlns="http://www.w3.org/2000/svg" xmlns:xlink="http://www.w3.org/1999/xlink" x="0px" y="0px"
	 viewBox="0 0 124.8 90.3" style="enable-background:new 0 0 124.8 90.3;" xml:space="preserve">
<style type="text/css">
	.st0{fill:#99643E;}
	.st1{fill:#FFF32B;}
	.st2{fill:#C36928;}
	.st3{fill:#F7931E;}
	.st4{fill:#89181A;}
	.st5{fill:#99CA47;}
	.st6{fill:#EE3D8A;}
	.st7{fill:#33A3DC;}
	.st8{fill:#FABFB7;}
	.st9{fill:#3CA4DD;}
	.st10{fill:#FFEF00;}
	.st11{fill:#E82F81;}
	.st12{fill:#6E3282;}
	.st13{fill:#A2C72D;}
</style>
<g>
	<g>
		<rect x="8.5" y="13.3" class="st0" width="14.6" height="63.6"/>
		<polygon class="st1" points="15.8,6.1 58.1,6.1 58.1,20.7 23.1,20.7 		"/>
		<path class="st2" d="M15.8,6.1c-4,0-7.3,3.3-7.3,7.3c0,4,3.3,7.3,7.3,7.3h7.3v-7.3C23.1,9.4,19.8,6.1,15.8,6.1"/>
		<rect x="23.1" y="37.8" class="st3" width="28.8" height="14.6"/>
		<path class="st4" d="M23.1,37.8h-7.3c-4,0-7.3,3.3-7.3,7.3c0,4,3.3,7.3,7.3,7.3h7.3V37.8"/>
		<circle class="st5" cx="15.8" cy="76.9" r="7.3"/>
		<path class="st6" d="M8.5,13.4c0-4,3.3-7.3,7.3-7.3s7.3,3.3,7.3,7.3c0,4-3.3,7.3-7.3,7.3S8.5,17.4,8.5,13.4L8.5,13.4z"/>
		<path class="st7" d="M51.9,13.3c0-4,3.3-7.3,7.3-7.3c4,0,7.3,3.3,7.3,7.3c0,4-3.3,7.3-7.3,7.3C55.2,20.6,51.9,17.3,51.9,13.3
			L51.9,13.3z"/>
		<path class="st8" d="M44.6,45.1c0-4,3.3-7.3,7.3-7.3s7.3,3.3,7.3,7.3c0,4-3.3,7.3-7.3,7.3C47.9,52.4,44.6,49.2,44.6,45.1
			L44.6,45.1z"/>
	</g>
	<g>
		<path class="st9" d="M116.2,28.1c-26.5-9.5-38.5,8.5-38.5,23.6c0,4,3.3,7.3,7.3,7.3s7.3-3.3,7.3-7.3l0,0c0-1.9,1-9.5,6.7-11.2
			c3.7-1.1,8.6,0.1,12.3,1.4L116.2,28.1z"/>
		<path class="st10" d="M106.4,35c0-4,3.3-7.3,7.3-7.3c4,0,7.3,3.3,7.3,7.3s-3.3,7.3-7.3,7.3S106.4,39,106.4,35L106.4,35z"/>
		<path class="st11" d="M92.3,77V34v-1.3c0-1.6-0.5-3.1-1.4-4.3c-1.3-1.8-3.5-3-5.9-3c-4,0-7.3,3.3-7.3,7.3v17.5V77L92.3,77"/>
		<path class="st12" d="M90.7,28.2c-8.9,4.7-13,14.6-13.1,23.5c0,4,3.3,7.3,7.3,7.3c4,0,7.3-3.3,7.3-7.3h0c0,0,0-19,0-19
			C92.3,31.1,91.7,29.5,90.7,28.2"/>
		<path class="st13" d="M77.7,77c0-4,3.3-7.3,7.3-7.3s7.3,3.3,7.3,7.3c0,4-3.3,7.3-7.3,7.3C80.9,84.3,77.7,81.1,77.7,77L77.7,77z"/>
	</g>
</g>
</svg>
