<?xml version="1.0" encoding="utf-8"?>
<!-- Generator: Adobe Illustrator 22.1.0, SVG Export Plug-In . SVG Version: 6.00 Build 0)  -->
<svg version="1.1" id="Calque_1" xmlns="http://www.w3.org/2000/svg" xmlns:xlink="http://www.w3.org/1999/xlink" x="0px" y="0px"
	 viewBox="0 0 841.9 595.3" style="enable-background:new 0 0 841.9 595.3;" xml:space="preserve">
<style type="text/css">
	.st0{fill:#F6F6F6;stroke:#050505;stroke-width:6;stroke-miterlimit:10;}
	.st1{fill:none;}
	.st2{fill:#070707;}
	.st3{fill:#18E6ED;stroke:#E9F40F;stroke-width:6;stroke-miterlimit:10;}
	.st4{fill:#050505;stroke:#000000;stroke-miterlimit:10;}
</style>
<g>
	<g>
		<path class="st0" d="M251,389.3c0.3-14.6,10.2-24.7,27-42c13.3-13.7,25.6-21.7,37-29c15.3-9.8,28.7-18.4,48-24
			c19-5.5,33.8-5.3,50-5c40.8,0.6,70.1,11.7,76,14c11.3,4.4,26.8,10.6,44,24c20.4,15.9,31.2,32.6,34,37c10.9,17.3,16.8,25.5,16,36
			c-1.4,17.6-18.6,29.1-41,44c-23,15.4-43.4,23-52,26c-14,4.9-44.6,15.2-85,13c-27.5-1.5-48.1-8.1-60-12c-21.6-7.1-35.3-14.9-39-17
			c-8.7-5-18.6-10.8-29-21C264.9,421.4,250.6,407.3,251,389.3z"/>
		<line class="st1" x1="260" y1="367.3" x2="240" y2="349.3"/>
		<path class="st1" d="M388,379.3"/>
		<polygon class="st2" points="257.3,369.6 239,353.9 242.7,347.6 261.3,362.9 		"/>
		<path class="st2" d="M281.5,339.9c-3.9-7.2-7.9-14.4-11.8-21.7l6.7-5l14.3,20.3C287.6,335.7,284.6,337.8,281.5,339.9z"/>
		<path class="st2" d="M323.8,311.8c-2.3-8.6-4.6-17.2-6.8-25.8l7-2l8.7,23C329.7,308.6,326.8,310.2,323.8,311.8z"/>
		<polygon class="st2" points="363.9,291 360.2,262.2 368.5,261.1 373.8,289.2 		"/>
		<path class="st2" d="M410,287.1c0.7-10.3,1.4-20.7,2.2-31l8.7,2l-1.7,29.3C416.1,287.3,413.1,287.2,410,287.1z"/>
		<polygon class="st2" points="466.7,295.3 478.3,263.6 486.7,268.3 476.3,299.3 		"/>
		<polygon class="st2" points="509.7,307.9 527.7,285.3 535,290.6 518.7,317.3 		"/>
		<polygon class="st2" points="546.7,337.6 565.7,311.9 574,321.3 554.7,345.9 		"/>
		<path class="st2" d="M573,368.6c22.3-17.3,22.3-17.3,22.3-17.3l5,7L578,378.6L573,368.6z"/>
		<path class="st2" d="M335.5,304.6"/>
	</g>
	<path class="st3" d="M360.5,300.3c-8.2,5.3-26.7,17.3-34,41c-7.3,23.6,1.2,43.9,5,53c3.7,8.9,11.7,27.8,32,39
		c18.8,10.4,37.4,8.2,47,7c5.8-0.7,20.9-3.1,37-13c9-5.5,20.1-12.4,27-26c6.5-12.8,5.8-24.7,5-38c-0.5-8.3-1.4-21.4-9-36
		c-5.9-11.4-13.1-18.2-15-20c-8.2-7.6-16.3-11.4-20-13c-7.3-3.1-13.2-4.1-19-5c-6.5-1-15.4-2.5-26-1
		C376.1,290.3,366,296.7,360.5,300.3z"/>
	<path class="st4" d="M395,321.3c-0.6,0.7-11.1,13.2-6,28c3.8,10.8,13.3,15.2,15,16c10.3,4.5,19.6,1.2,23,0c3.5-1.2,16.1-5.7,19-17
		c2.2-8.5-2.4-16.1-6-22c-3.1-5.1-6.8-11.1-14-14C415.5,308.1,402.5,312.6,395,321.3z"/>
</g>
</svg>
