<?xml version="1.0" encoding="utf-8"?>
<!-- Generator: Adobe Illustrator 22.1.0, SVG Export Plug-In . SVG Version: 6.00 Build 0)  -->
<svg version="1.1" id="Calque_1" xmlns="http://www.w3.org/2000/svg" xmlns:xlink="http://www.w3.org/1999/xlink" x="0px" y="0px"
	 viewBox="0 0 841.9 595.3" style="enable-background:new 0 0 841.9 595.3;" xml:space="preserve">
<style type="text/css">
	.st0{fill:#F6F6F6;stroke:#050505;stroke-width:6;stroke-miterlimit:10;}
	.st1{fill:none;}
	.st2{fill:#070707;}
	.st3{fill:#18E6ED;stroke:#E9F40F;stroke-width:6;stroke-miterlimit:10;}
	.st4{fill:#050505;stroke:#000000;stroke-miterlimit:10;}
	.st5{fill:#FCFAFA;stroke:#050505;stroke-width:6;stroke-miterlimit:10;}
</style>
<path class="st0" d="M538.2,308.5c-0.6,14.6-10.7,24.5-27.8,41.5c-13.6,13.4-26,21.2-37.5,28.3c-15.5,9.5-29,17.8-48.5,23.1
	c-19.1,5.1-33.9,4.7-50.1,4c-40.8-1.4-69.9-13-75.7-15.5c-11.2-4.6-26.6-11.1-43.5-24.8c-20.1-16.3-30.6-33.2-33.3-37.6
	c-10.6-17.5-16.3-25.8-15.3-36.3c0.1-0.9,0.2-1.8,0.4-2.7c3.1-16.1,19.9-26.8,41.4-40.6c23.3-15,43.8-22.2,52.5-25
	c14.1-4.6,44.9-14.3,85.2-11.4c27.5,2,47.9,9,59.8,13.1c21.5,7.5,35,15.6,38.7,17.7c8.6,5.2,18.4,11.2,28.6,21.6
	C524.9,276.1,539,290.5,538.2,308.5z"/>
<path class="st1" d="M401.1,315.8"/>
<polygon class="st2" points="509.5,301 527.5,317.1 523.7,323.3 505.4,307.7 "/>
<polygon class="st2" points="267.6,309.5 248.1,334.8 240,325.3 259.7,301 "/>
<path class="st2" d="M238.9,298c-22.6,16.9-22.6,16.9-22.6,16.9l-4.9-7.1l22.7-19.9L238.9,298z"/>
<path class="st2" d="M452.1,391.5"/>
<path class="st3" d="M392.2,398.4c9.7-1.4,31.5-4.8,47.9-23.3c16.4-18.5,17-40.5,17.3-50.3c0.1-4.8-154.7-4.6-154.3,3.7
	c0.7,12.8,4.4,22,5.4,24.4c4.3,10.3,10.1,17.1,12.9,20.1c5.4,5.8,10.3,9.2,15.2,12.4c5.5,3.6,13,8.6,23.3,11.6
	C373.8,401.1,385.7,399.5,392.2,398.4z"/>
<path class="st4" d="M394.1,355.4c0.8-0.5,14.9-8.6,15.2-24.3c0.1-11.4-7.3-18.8-8.6-20.2c-8.1-7.7-18-7.8-21.6-7.9
	c-3.7-0.1-17.1-0.1-23.7,9.5c-5,7.2-3.2,16-1.9,22.7c1.2,5.9,2.6,12.8,8.4,17.9C370.3,360.8,384.1,361.1,394.1,355.4z"/>
<path class="st0" d="M248,317.3"/>
<path class="st5" d="M206.5,283.5c8.9,5.4,21.2,12.3,36.5,19.2c30.8,13.8,56.5,19.7,68,22c21.8,4.4,38.7,5.4,49,6
	c7.7,0.4,26.2,1.1,50-1c7.1-0.6,29.8-2.8,59-10c19-4.7,43.1-12,70-24"/>
<path class="st2" d="M303.6,323.1l-18.4,22.3l-7.2-5.4c4.9-6.9,9.7-13.8,14.6-20.6C296.2,320.5,299.9,321.8,303.6,323.1z"/>
<path class="st2" d="M337.5,328.3c-3.6,9.8-7.3,19.7-10.9,29.5l-8.3-4.9c3.7-8.5,7.3-16.9,11-25.4C332,327.8,334.8,328,337.5,328.3z
	"/>
<polygon class="st2" points="424.5,325.6 427.6,354.4 419.3,355.4 414.5,327.2 "/>
<path class="st2" d="M451.9,320.5c2.1,8.6,4.3,17.3,6.3,25.9l-7,1.9l-8.3-23.2C446,323.6,448.9,322.1,451.9,320.5z"/>
<path class="st2" d="M480,315.5c1.7,3.3,3.5,6.7,5.5,10.3c1.9,3.3,3.8,6.4,5.7,9.4l-6.8,4.9l-13.9-20.6c1,0.1,3.3,0.2,5.8-1
	C478.2,317.6,479.4,316.3,480,315.5z"/>
</svg>
