<?xml version="1.0" encoding="utf-8"?>
<!-- Generator: Adobe Illustrator 22.0.1, SVG Export Plug-In . SVG Version: 6.00 Build 0)  -->
<svg version="1.1" id="Layer_1" xmlns="http://www.w3.org/2000/svg" xmlns:xlink="http://www.w3.org/1999/xlink" x="0px" y="0px"
	 viewBox="0 0 123 32" style="enable-background:new 0 0 123 32;" xml:space="preserve">
<style type="text/css">
	.st0{fill:#F9C6C1;}
	.st1{fill:#2AB9CB;}
	.st2{fill:#54939C;}
	.st3{fill:#FFEF00;}
	.st4{fill:#E82F81;}
	.st5{fill:#9E1779;}
	.st6{fill:#F49200;}
	.st7{fill:#A2C72D;}
	.st8{fill:#A07D23;}
	.st9{fill:#E93081;}
	.st10{fill:#9D3828;}
	.st11{fill:#3CA4DD;}
	.st12{fill:#6E3282;}
	.st13{fill:#3EA4DD;}
	.st14{fill:#158F41;}
	.st15{fill:#3D2F82;}
	.st16{fill:#009C57;}
	.st17{fill:#F9C7C1;}
	.st18{fill:#E5200C;}
	.st19{fill:#28B9CB;}
	.st20{fill:#6E3772;}
	.st21{fill:#E6310B;}
	.st22{fill:#A5D8D6;}
	.st23{fill:#5CB239;}
	.st24{fill:#442A37;}
	.st25{fill:#791312;}
</style>
<g>
	<g>
		<polygon class="st0" points="7.8,12.6 11.3,5.3 9.1,4.2 6.7,9.3 		"/>
		<polygon class="st1" points="6.7,9.3 4.2,4.2 2.1,5.3 5.6,12.6 		"/>
		<path class="st2" d="M6.7,9.3l1.1,2.3c0.6,1.2-0.8,2.3-1.8,1.5c-0.4-0.3-0.6-1-0.3-1.5L6.7,9.3"/>
		<path class="st3" d="M1.9,4.8c0-0.7,0.5-1.2,1.2-1.2s1.2,0.5,1.2,1.2S3.8,6,3.1,6S1.9,5.4,1.9,4.8L1.9,4.8z"/>
		<circle class="st4" cx="6.7" cy="12.1" r="1.2"/>
		<path class="st5" d="M9,4.8c0-0.7,0.5-1.2,1.2-1.2s1.2,0.5,1.2,1.2S10.8,6,10.2,6S9,5.4,9,4.8L9,4.8z"/>
	</g>
	<g>
		<path class="st6" d="M23.4,8.4L23.4,8.4c0,0.5,0.1,0.9,0.2,1.2c0.1,0.3,0.4,0.6,0.6,0.9c0.2,0.2,0.4,0.3,0.6,0.4
			c0.3,0.1,0.7,0.2,1.2,0.2c0,0,0,0,0,0c0.3,0,0.6-0.1,1-0.2c0.3-0.1,0.6-0.3,0.9-0.5l1.6,1.8c-0.5,0.4-1,0.8-1.6,1
			c-0.6,0.2-1.2,0.4-1.9,0.4c0,0,0,0,0,0c-0.6,0-1.3-0.1-1.8-0.3c-0.6-0.2-1.1-0.5-1.5-0.8c-0.3-0.2-0.5-0.5-0.8-0.8
			c-0.3-0.4-0.5-0.8-0.7-1.3c-0.2-0.6-0.3-1.3-0.3-1.9H23.4z"/>
		<path class="st7" d="M25.8,3.4C25.8,3.4,25.8,3.4,25.8,3.4C25.8,3.4,25.8,3.4,25.8,3.4c-2.7,0-4.9,2.3-4.9,5.1l0,0h0h2.4
			c0-1.5,1.1-2.6,2.4-2.6c1.1,0,1.9,0.6,2.3,1.4l2.7,1.2C30.8,5.6,28.7,3.4,25.8,3.4"/>
		<path class="st8" d="M22.1,7.2c-0.7,0-1.2,0.5-1.2,1.2h0c0,0.7,0.5,1.2,1.2,1.2s1.2-0.5,1.2-1.2C23.4,7.8,22.8,7.2,22.1,7.2"/>
		<path class="st9" d="M28.1,7.2"/>
		<path class="st9" d="M28.1,7.2h-2.7c-0.7,0-1.2,0.5-1.2,1.2s0.5,1.2,1.2,1.2h4.2L28.1,7.2z"/>
		<path class="st10" d="M29.5,7.2h-1.5c0,0,0,0,0,0c0.1,0.3,0.2,0.8,0.2,1.2c0,0.7,0.5,1.2,1.2,1.2l0,0c0.7,0,1.2-0.5,1.2-1.2l0,0
			C30.8,7.8,30.2,7.2,29.5,7.2"/>
		<path class="st11" d="M27.5,11.3c0-0.7,0.5-1.2,1.2-1.2s1.2,0.5,1.2,1.2c0,0.7-0.5,1.2-1.2,1.2C28,12.5,27.5,11.9,27.5,11.3
			L27.5,11.3z"/>
	</g>
	<g>
		<path class="st11" d="M47.3,3.9c-4.4-1.6-6.4,1.4-6.4,3.9c0,0.7,0.5,1.2,1.2,1.2s1.2-0.5,1.2-1.2l0,0c0-0.3,0.2-1.6,1.1-1.9
			c0.6-0.2,1.4,0,2,0.2L47.3,3.9z"/>
		<path class="st3" d="M45.7,5.1c0-0.7,0.5-1.2,1.2-1.2c0.7,0,1.2,0.5,1.2,1.2s-0.5,1.2-1.2,1.2S45.7,5.8,45.7,5.1L45.7,5.1z"/>
		<path class="st4" d="M43.4,12.1V4.9V4.7c0-0.3-0.1-0.5-0.2-0.7c-0.2-0.3-0.6-0.5-1-0.5c-0.7,0-1.2,0.5-1.2,1.2v2.9v4.5L43.4,12.1"
			/>
		<path class="st12" d="M43.1,3.9c-1.5,0.8-2.2,2.4-2.2,3.9c0,0.7,0.5,1.2,1.2,1.2c0.7,0,1.2-0.5,1.2-1.2h0c0,0,0-3.2,0-3.2
			C43.4,4.4,43.3,4.2,43.1,3.9"/>
		<circle class="st7" cx="42.1" cy="12.1" r="1.2"/>
	</g>
	<g>
		<path class="st7" d="M65.7,10.4c0-2.8-3.5-3.1-4.3-3.4c-0.2-0.1-0.6-0.2-0.7-0.4c0,0,0,0,0-0.1l-2.4,0c0,1.8,1.5,2.6,3.2,3
			c0.4,0.1,1.6,0.4,1.8,0.7c0,0,0,0,0,0.1C63.5,10.4,65.4,10.4,65.7,10.4L65.7,10.4z"/>
		<path class="st7" d="M60.7,6.5"/>
		<path class="st6" d="M59.8,10.3c0.7,0.4,1.3,0.8,2.2,0.8c0.5,0,1.2-0.1,1.2-0.7h2.4c0,1.7-1.3,3.1-3.6,3.1c-1.4,0-2.5-0.4-3.6-1.2
			L59.8,10.3z"/>
		<path class="st13" d="M64.6,4.2c-0.4-0.2-0.7-0.4-1.1-0.5c-2.5-0.9-5.2,0.1-5.2,2.8l2.4,0c0-0.3,0.1-0.7,1-0.7
			c1.2,0,1.7,0.7,2.3,0.7L64.6,4.2z"/>
		<path class="st14" d="M59.4,5.3c-0.7,0-1.2,0.5-1.2,1.2c0,0,0,0,0,0c0,0.7,0.5,1.2,1.2,1.2c0,0,0,0,0,0c0.7,0,1.2-0.6,1.2-1.2
			C60.7,5.8,60.1,5.3,59.4,5.3"/>
		<circle class="st8" cx="64.4" cy="10.4" r="1.2"/>
		<path class="st4" d="M62.8,5.3C62.8,4.6,63.4,4,64,4c0.7,0,1.2,0.5,1.2,1.2S64.7,6.5,64,6.5S62.8,5.9,62.8,5.3L62.8,5.3z"/>
		<circle class="st15" cx="59.1" cy="11.3" r="1.2"/>
	</g>
	<g>
		<rect x="76.3" y="4.7" class="st4" width="2.4" height="7.4"/>
		<path class="st6" d="M76.3,1c0-0.7,0.5-1.2,1.2-1.2s1.2,0.5,1.2,1.2c0,0.7-0.5,1.2-1.2,1.2S76.3,1.7,76.3,1L76.3,1z"/>
		<circle class="st16" cx="77.5" cy="12.1" r="1.2"/>
		<circle class="st17" cx="77.5" cy="4.7" r="1.2"/>
	</g>
	<g>
		<path class="st6" d="M96.8,8.5c0-0.3,0-0.5-0.1-0.8c-0.1-0.2-0.2-0.5-0.3-0.7c-0.3-0.4-0.7-0.8-1.2-1c-0.3-0.1-0.7-0.2-1.1-0.2
			c-0.3,0-0.6,0-0.8,0.1c-0.3,0.1-0.5,0.2-0.7,0.3c-0.4,0.3-0.8,0.7-1,1.2c-0.1,0.3-0.2,0.7-0.2,1l0,0h-2.4c0-0.5,0.1-1,0.2-1.5
			c0.2-0.5,0.4-0.9,0.7-1.3c0.6-0.8,1.3-1.5,2.3-1.8c0.6-0.3,1.3-0.4,2-0.4c0,0,0,0,0,0c0.5,0,1,0.1,1.5,0.2C96.1,3.8,96.6,4,97,4.3
			c0.8,0.5,1.5,1.3,1.9,2.2c0.3,0.6,0.4,1.3,0.4,2L96.8,8.5z"/>
		<path class="st13" d="M99.3,8.5c0,0.7-0.5,1.2-1.2,1.2s-1.2-0.5-1.2-1.2l0,0c0,1.5-1.2,2.7-2.7,2.7c-1.5,0-2.7-1.2-2.7-2.7l0,0
			c0,0.7-0.5,1.2-1.2,1.2c-0.7,0-1.2-0.5-1.2-1.2c0,2.8,2.3,5.1,5.2,5.1c0,0,0,0,0,0C97,13.6,99.3,11.3,99.3,8.5"/>
		<path class="st5" d="M90.1,7.3c-0.7,0-1.2,0.5-1.2,1.2l0,0c0,0.7,0.5,1.2,1.2,1.2c0.7,0,1.2-0.5,1.2-1.2l0,0
			C91.4,7.8,90.8,7.3,90.1,7.3"/>
		<path class="st15" d="M98.1,7.3c-0.7,0-1.2,0.5-1.2,1.2l0,0c0,0.7,0.5,1.2,1.2,1.2s1.2-0.5,1.2-1.2l0,0
			C99.3,7.8,98.7,7.3,98.1,7.3"/>
	</g>
	<g>
		<path class="st6" d="M111.1,13.3c-0.7,0-1.2-0.5-1.2-1.2V4.5c0-0.7,0.5-1.2,1.2-1.2c0.7,0,1.2,0.5,1.2,1.2v7.5
			C112.4,12.7,111.8,13.3,111.1,13.3z"/>
		<path class="st9" d="M118.8,7.7c0-3.4-3.7-5.4-6.6-3.8c0.1,0.2,0.2,0.4,0.2,0.6v3.2c0-2.2,3.3-2.7,3.9-0.6
			c0.1,0.2,0.1,0.4,0.1,0.6C116.7,7.7,118.5,7.7,118.8,7.7z"/>
		<path class="st18" d="M112.2,3.9c-0.6,0.3-1.1,0.8-1.5,1.3c-0.2,0.3-0.4,0.7-0.6,1.1c-0.1,0.4-0.2,0.9-0.2,1.3
			c0,0.7,0.5,1.2,1.2,1.2c0.7,0,1.2-0.5,1.2-1.2V4.5C112.4,4.3,112.3,4.1,112.2,3.9"/>
		<rect x="116.4" y="7.7" class="st7" width="2.4" height="4.5"/>
		<path class="st10" d="M117.6,6.5c-0.7,0-1.2,0.5-1.2,1.2l0,0c0,0.7,0.5,1.2,1.2,1.2c0.7,0,1.2-0.5,1.2-1.2l0,0
			C118.8,7,118.3,6.5,117.6,6.5"/>
		<circle class="st11" cx="117.6" cy="12.1" r="1.2"/>
		<circle class="st5" cx="111.1" cy="12.1" r="1.2"/>
	</g>
	<g>
		<path class="st19" d="M7.9,17.1c-0.6-0.1-1.1,0-1.4,0.2c-0.3,0.2-0.2,0.8-0.2,0.8v8.9H3.9v-8.8c0-0.4,0-1.7,1-2.6
			c0.8-0.8,1.9-1.1,3.4-0.9L7.9,17.1"/>
		<path class="st9" d="M8,18.9H6.3v2.4H8c0.7,0,1.2-0.5,1.2-1.2C9.2,19.4,8.7,18.9,8,18.9 M3.9,18.9H3.1c-0.7,0-1.2,0.5-1.2,1.2
			c0,0.7,0.5,1.2,1.2,1.2h0.7L3.9,18.9"/>
		<polyline class="st20" points="6.3,18.9 3.9,18.9 3.9,21.3 6.3,21.3 6.3,18.9 		"/>
		<circle class="st6" cx="5.1" cy="27.1" r="1.2"/>
		<path class="st15" d="M6.8,20.1c0-0.7,0.5-1.2,1.2-1.2s1.2,0.5,1.2,1.2S8.7,21.3,8,21.3C7.3,21.3,6.8,20.7,6.8,20.1L6.8,20.1z"/>
		<path class="st21" d="M6.9,15.9c0-0.7,0.5-1.2,1.2-1.2s1.2,0.5,1.2,1.2c0,0.7-0.5,1.2-1.2,1.2S6.9,16.6,6.9,15.9L6.9,15.9z"/>
	</g>
	<g>
		<path class="st11" d="M17.3,18.9c-4.4-1.6-6.4,1.4-6.4,3.9c0,0.7,0.5,1.2,1.2,1.2c0.7,0,1.2-0.5,1.2-1.2l0,0
			c0-0.3,0.2-1.6,1.1-1.9c0.6-0.2,1.4,0,2,0.2L17.3,18.9z"/>
		<path class="st3" d="M15.7,20.1c0-0.7,0.5-1.2,1.2-1.2s1.2,0.5,1.2,1.2s-0.5,1.2-1.2,1.2C16.3,21.3,15.7,20.8,15.7,20.1L15.7,20.1
			z"/>
		<path class="st4" d="M13.4,27.1v-7.2v-0.2c0-0.3-0.1-0.5-0.2-0.7c-0.2-0.3-0.6-0.5-1-0.5c-0.7,0-1.2,0.5-1.2,1.2v2.9v4.5
			L13.4,27.1"/>
		<path class="st12" d="M13.1,18.9c-1.5,0.8-2.2,2.4-2.2,3.9c0,0.7,0.5,1.2,1.2,1.2c0.7,0,1.2-0.5,1.2-1.2h0c0,0,0-3.2,0-3.2
			C13.4,19.4,13.3,19.2,13.1,18.9"/>
		<circle class="st7" cx="12.1" cy="27.1" r="1.2"/>
	</g>
	<g>
		<path class="st7" d="M26.9,19.5c-0.9-0.7-1.9-1-3-1l0,2.4c0.8,0,1.6,0.4,2.1,1.1c1.1,1.7-0.1,4-2.1,4l0,2.4c1.1,0,2.1-0.3,3-1
			c0,0,0.1-0.1,0.1-0.1v-7.7C27,19.5,26.9,19.5,26.9,19.5L26.9,19.5z"/>
		<path class="st13" d="M29.3,19.7l-2.4-0.3c0,0,0,0,0,0c0,0,0,0,0,0l0,0c0,0,0,0,0,0c0,0.1,0,0.2,0,0.3c0,7.9,0,7.5,0,7.7
			c0,0,0,0,0,0l0,0c0,0,0,0,0,0c0,0,0,0,0,0l2.4-0.3L29.3,19.7L29.3,19.7z"/>
		<path class="st14" d="M26.9,19.5c0,0.1,0,0.2,0,0.3c0,8,0,7.5,0,7.7c1.3-1,1.9-2.5,1.9-4C28.8,21.9,28.1,20.5,26.9,19.5"/>
		<polyline class="st6" points="23.9,18.4 23.9,18.4 23.9,18.4 		"/>
		<path class="st6" d="M23.9,26L23.9,26c-1.4,0-2.5-1.2-2.5-2.6c0-1.4,1.1-2.6,2.5-2.6l0-2.4c-3.5,0-5.9,3.7-4.5,7
			c0.8,1.8,2.5,3.1,4.5,3.1L23.9,26z"/>
		<path class="st8" d="M23.9,18.4L23.9,18.4c-0.7,0-1.2,0.5-1.2,1.2c0,0.7,0.5,1.2,1.2,1.2l0,0c0.7,0,1.2-0.5,1.2-1.2
			C25.1,18.9,24.5,18.4,23.9,18.4 M23.9,26L23.9,26c-0.7,0-1.2,0.5-1.2,1.2c0,0.7,0.5,1.2,1.2,1.2l0,0c0.7,0,1.2-0.5,1.2-1.2
			C25.1,26.6,24.5,26,23.9,26"/>
		<path class="st21" d="M26.8,19.7c0-0.7,0.5-1.2,1.2-1.2s1.2,0.5,1.2,1.2s-0.5,1.2-1.2,1.2C27.4,20.9,26.8,20.4,26.8,19.7
			L26.8,19.7z"/>
		<path class="st4" d="M26.8,27.1c0-0.7,0.5-1.2,1.2-1.2s1.2,0.5,1.2,1.2s-0.5,1.2-1.2,1.2C27.4,28.3,26.8,27.8,26.8,27.1L26.8,27.1
			z"/>
	</g>
	<g>
		<path class="st6" d="M33.1,28.3c-0.7,0-1.2-0.5-1.2-1.2v-7.5c0-0.7,0.5-1.2,1.2-1.2c0.7,0,1.2,0.5,1.2,1.2v7.5
			C34.4,27.7,33.8,28.3,33.1,28.3L33.1,28.3z"/>
		<path class="st9" d="M40.8,22.7c0-3.4-3.7-5.4-6.6-3.8c0.1,0.2,0.2,0.4,0.2,0.6v3.2c0-2.2,3.3-2.7,3.9-0.6
			c0.1,0.2,0.1,0.4,0.1,0.6C38.7,22.7,40.5,22.7,40.8,22.7L40.8,22.7z"/>
		<path class="st18" d="M34.2,18.9c-0.6,0.3-1.1,0.8-1.5,1.3c-0.2,0.3-0.4,0.7-0.6,1.1c-0.1,0.4-0.2,0.9-0.2,1.3
			c0,0.7,0.5,1.2,1.2,1.2c0.7,0,1.2-0.5,1.2-1.2v-3.2C34.4,19.3,34.3,19.1,34.2,18.9"/>
		<rect x="38.4" y="22.7" class="st7" width="2.4" height="4.5"/>
		<path class="st10" d="M39.6,21.5c-0.7,0-1.2,0.5-1.2,1.2l0,0c0,0.7,0.5,1.2,1.2,1.2c0.7,0,1.2-0.5,1.2-1.2l0,0
			C40.8,22,40.3,21.5,39.6,21.5"/>
		<path class="st11" d="M38.4,27.1c0-0.7,0.5-1.2,1.2-1.2c0.7,0,1.2,0.5,1.2,1.2s-0.5,1.2-1.2,1.2S38.4,27.7,38.4,27.1L38.4,27.1z"
			/>
		<circle class="st5" cx="33.1" cy="27.1" r="1.2"/>
	</g>
	<g>
		<path class="st22" d="M50,21.4c-1.8-1.6-4.7-0.4-4.7,1.9h-2.4c0-4.5,5.4-6.7,8.7-3.8L50,21.4z"/>
		<path class="st7" d="M50,25.3c-0.2,0.2-0.5,0.4-0.8,0.5c-0.3,0.1-0.7,0.2-1,0.2c-0.4,0-0.8-0.1-1.1-0.2c-0.5-0.2-0.9-0.5-1.2-1
			c-0.1-0.2-0.3-0.4-0.3-0.7c-0.1-0.2-0.1-0.5-0.1-0.8l0,0h-2.4c0,0.7,0.1,1.4,0.4,2c0.4,0.9,1.1,1.7,1.9,2.2
			c0.4,0.3,0.9,0.5,1.4,0.6c0.5,0.1,1,0.2,1.5,0.2c0,0,0,0,0,0c0.7,0,1.3-0.1,1.9-0.3c0.6-0.2,1.1-0.5,1.6-0.9L50,25.3z"/>
		<path class="st23" d="M44.1,22.1c-0.7,0-1.2,0.5-1.2,1.2l0,0c0,0.7,0.5,1.2,1.2,1.2c0.7,0,1.2-0.5,1.2-1.2l0,0
			C45.4,22.7,44.8,22.1,44.1,22.1"/>
		<path class="st11" d="M49.6,26.2c0-0.7,0.5-1.2,1.2-1.2c0.7,0,1.2,0.5,1.2,1.2s-0.5,1.2-1.2,1.2C50.1,27.4,49.6,26.9,49.6,26.2
			L49.6,26.2z"/>
		<path class="st4" d="M49.6,20.5c0-0.7,0.5-1.2,1.2-1.2c0.7,0,1.2,0.5,1.2,1.2c0,0.7-0.5,1.2-1.2,1.2
			C50.2,21.7,49.6,21.1,49.6,20.5L49.6,20.5z"/>
	</g>
	<g>
		<path class="st6" d="M61.8,23.5c0-0.3,0-0.5-0.1-0.8c-0.1-0.2-0.2-0.5-0.3-0.7c-0.3-0.4-0.7-0.8-1.2-1c-0.3-0.1-0.7-0.2-1.1-0.2
			c-0.3,0-0.6,0-0.8,0.1c-0.3,0.1-0.5,0.2-0.7,0.3c-0.4,0.3-0.8,0.7-1,1.2c-0.1,0.3-0.2,0.7-0.2,1l0,0h-2.4c0-0.5,0.1-1,0.2-1.5
			c0.2-0.5,0.4-0.9,0.7-1.3c0.6-0.8,1.3-1.5,2.3-1.8c0.6-0.3,1.3-0.4,2-0.4c0,0,0,0,0,0c0.5,0,1,0.1,1.5,0.2
			c0.5,0.1,0.9,0.4,1.4,0.6c0.8,0.5,1.5,1.3,1.9,2.2c0.3,0.6,0.4,1.3,0.4,2L61.8,23.5z"/>
		<path class="st13" d="M64.3,23.5c0,0.7-0.5,1.2-1.2,1.2c-0.7,0-1.2-0.5-1.2-1.2l0,0c0,1.5-1.2,2.7-2.7,2.7c-1.5,0-2.7-1.2-2.7-2.7
			l0,0c0,0.7-0.5,1.2-1.2,1.2c-0.7,0-1.2-0.5-1.2-1.2c0,2.8,2.3,5.1,5.2,5.1c0,0,0,0,0,0C62,28.6,64.3,26.3,64.3,23.5"/>
		<path class="st5" d="M55.1,22.3c-0.7,0-1.2,0.5-1.2,1.2l0,0c0,0.7,0.5,1.2,1.2,1.2c0.7,0,1.2-0.5,1.2-1.2l0,0
			C56.4,22.8,55.8,22.3,55.1,22.3"/>
		<path class="st15" d="M63.1,22.3c-0.7,0-1.2,0.5-1.2,1.2l0,0c0,0.7,0.5,1.2,1.2,1.2c0.7,0,1.2-0.5,1.2-1.2l0,0
			C64.3,22.8,63.7,22.3,63.1,22.3"/>
	</g>
	<g>
		<polyline class="st11" points="65.9,20 65.9,31.1 68.4,31.1 68.4,20 		"/>
		<path class="st7" d="M70.9,18.8c-1,0-1.9,0.3-2.6,0.8c0.1,0.2,0.1,0.3,0.1,0.5v7.9c0.7,0.4,1.6,0.7,2.5,0.7c2.7,0,4.9-2.2,4.9-4.9
			S73.6,18.8,70.9,18.8 M70.9,26.2c-1.4,0-2.5-1.1-2.5-2.5c0-1.4,1.1-2.5,2.5-2.5c1.4,0,2.5,1.1,2.5,2.5
			C73.4,25.1,72.2,26.2,70.9,26.2"/>
		<path class="st14" d="M68.2,19.5c-1.4,0.9-2.3,2.4-2.3,4.2c0,1.8,1,3.4,2.4,4.2V20C68.4,19.9,68.3,19.7,68.2,19.5"/>
		<circle class="st6" cx="67.1" cy="31.1" r="1.2"/>
		<circle class="st5" cx="67.1" cy="20" r="1.2"/>
	</g>
	<g>
		<polyline class="st16" points="77.9,16 77.9,27.1 80.4,27.1 80.4,16 		"/>
		<path class="st5" d="M84.4,22.7c0-2.1-3-2.6-3.9-0.7c-0.1,0.2-0.2,0.5-0.2,0.7l0,0v-3.9c2.9-1.5,6.4,0.6,6.5,3.9L84.4,22.7z"/>
		<path class="st24" d="M80.4,18.8c-0.7,0.3-1.2,0.8-1.7,1.4c-0.2,0.3-0.4,0.7-0.6,1.1c-0.1,0.4-0.2,0.9-0.2,1.3
			c0,0.7,0.5,1.2,1.2,1.2c0.7,0,1.2-0.5,1.2-1.2L80.4,18.8"/>
		<path class="st21" d="M86.8,27.1v-4.4c0,0,0,0,0,0c0,0,0,0,0,0h0h-2.4v4.4"/>
		<path class="st25" d="M85.6,21.5c-0.7,0-1.2,0.5-1.2,1.2l0,0c0,0.7,0.5,1.2,1.2,1.2s1.2-0.5,1.2-1.2h0c0,0,0,0,0,0
			C86.8,22,86.3,21.5,85.6,21.5"/>
		<path class="st4" d="M77.9,16c0-0.7,0.5-1.2,1.2-1.2c0.7,0,1.2,0.5,1.2,1.2c0,0.7-0.5,1.2-1.2,1.2C78.5,17.2,77.9,16.7,77.9,16
			L77.9,16z"/>
		<circle class="st11" cx="85.6" cy="27.1" r="1.2"/>
		<circle class="st7" cx="79.1" cy="27.1" r="1.2"/>
	</g>
	<g>
		<path class="st6" d="M95.8,23.5c0-0.3,0-0.5-0.1-0.8c-0.1-0.2-0.2-0.5-0.3-0.7c-0.3-0.4-0.7-0.8-1.2-1c-0.3-0.1-0.7-0.2-1.1-0.2
			c-0.3,0-0.6,0-0.8,0.1c-0.3,0.1-0.5,0.2-0.7,0.3c-0.4,0.3-0.8,0.7-1,1.2c-0.1,0.3-0.2,0.7-0.2,1l0,0h-2.4c0-0.5,0.1-1,0.2-1.5
			c0.2-0.5,0.4-0.9,0.7-1.3c0.6-0.8,1.3-1.5,2.3-1.8c0.6-0.3,1.3-0.4,2-0.4c0,0,0,0,0,0c0.5,0,1,0.1,1.5,0.2
			c0.5,0.1,0.9,0.4,1.4,0.6c0.8,0.5,1.5,1.3,1.9,2.2c0.3,0.6,0.4,1.3,0.4,2L95.8,23.5z"/>
		<path class="st13" d="M98.3,23.5c0,0.7-0.5,1.2-1.2,1.2s-1.2-0.5-1.2-1.2l0,0c0,1.5-1.2,2.7-2.7,2.7c-1.5,0-2.7-1.2-2.7-2.7l0,0
			c0,0.7-0.5,1.2-1.2,1.2c-0.7,0-1.2-0.5-1.2-1.2c0,2.8,2.3,5.1,5.2,5.1c0,0,0,0,0,0C96,28.6,98.3,26.3,98.3,23.5"/>
		<path class="st5" d="M89.1,22.3c-0.7,0-1.2,0.5-1.2,1.2l0,0c0,0.7,0.5,1.2,1.2,1.2c0.7,0,1.2-0.5,1.2-1.2l0,0
			C90.4,22.8,89.8,22.3,89.1,22.3"/>
		<path class="st15" d="M97.1,22.3c-0.7,0-1.2,0.5-1.2,1.2l0,0c0,0.7,0.5,1.2,1.2,1.2s1.2-0.5,1.2-1.2l0,0
			C98.3,22.8,97.7,22.3,97.1,22.3"/>
	</g>
	<g>
		<path class="st6" d="M102.1,28.3c-0.7,0-1.2-0.5-1.2-1.2v-7.5c0-0.7,0.5-1.2,1.2-1.2c0.7,0,1.2,0.5,1.2,1.2v7.5
			C103.4,27.7,102.8,28.3,102.1,28.3z"/>
		<path class="st9" d="M109.8,22.7c0-3.4-3.7-5.4-6.6-3.8c0.1,0.2,0.2,0.4,0.2,0.6v3.2c0-2.2,3.3-2.7,3.9-0.6
			c0.1,0.2,0.1,0.4,0.1,0.6C107.7,22.7,109.5,22.7,109.8,22.7z"/>
		<path class="st18" d="M103.2,18.9c-0.6,0.3-1.1,0.8-1.5,1.3c-0.2,0.3-0.4,0.7-0.6,1.1c-0.1,0.4-0.2,0.9-0.2,1.3
			c0,0.7,0.5,1.2,1.2,1.2c0.7,0,1.2-0.5,1.2-1.2v-3.2C103.4,19.3,103.3,19.1,103.2,18.9"/>
		<rect x="107.4" y="22.7" class="st7" width="2.4" height="4.5"/>
		<path class="st10" d="M108.6,21.5c-0.7,0-1.2,0.5-1.2,1.2l0,0c0,0.7,0.5,1.2,1.2,1.2c0.7,0,1.2-0.5,1.2-1.2l0,0
			C109.8,22,109.3,21.5,108.6,21.5"/>
		<circle class="st11" cx="108.6" cy="27.1" r="1.2"/>
		<circle class="st5" cx="102.1" cy="27.1" r="1.2"/>
	</g>
	<g>
		<path class="st6" d="M113.4,23.4L113.4,23.4c0,0.5,0.1,0.9,0.2,1.2c0.1,0.3,0.4,0.6,0.6,0.9c0.2,0.2,0.4,0.3,0.6,0.4
			c0.3,0.1,0.7,0.2,1.2,0.2c0,0,0,0,0,0c0.3,0,0.6-0.1,1-0.2c0.3-0.1,0.6-0.3,0.9-0.5l1.6,1.8c-0.5,0.4-1,0.8-1.6,1
			c-0.6,0.2-1.2,0.4-1.9,0.4c0,0,0,0,0,0c-0.6,0-1.3-0.1-1.8-0.3c-0.6-0.2-1.1-0.5-1.5-0.8c-0.3-0.2-0.5-0.5-0.8-0.8
			c-0.3-0.4-0.5-0.8-0.7-1.3c-0.2-0.6-0.3-1.3-0.3-1.9H113.4z"/>
		<path class="st7" d="M115.8,18.4C115.8,18.4,115.8,18.4,115.8,18.4C115.8,18.4,115.8,18.4,115.8,18.4c-2.7,0-4.9,2.3-4.9,5.1l0,0
			h0h2.4c0-1.5,1.1-2.6,2.4-2.6c1.1,0,1.9,0.6,2.3,1.4l2.7,1.2C120.8,20.6,118.7,18.4,115.8,18.4"/>
		<path class="st8" d="M112.1,22.2c-0.7,0-1.2,0.5-1.2,1.2h0c0,0.7,0.5,1.2,1.2,1.2s1.2-0.5,1.2-1.2
			C113.4,22.8,112.8,22.2,112.1,22.2"/>
		<path class="st9" d="M118.1,22.2"/>
		<path class="st9" d="M118.1,22.2h-2.7c-0.7,0-1.2,0.5-1.2,1.2s0.5,1.2,1.2,1.2h4.2L118.1,22.2z"/>
		<path class="st10" d="M119.5,22.2h-1.5c0,0,0,0,0,0c0.1,0.3,0.2,0.8,0.2,1.2c0,0.7,0.5,1.2,1.2,1.2l0,0c0.7,0,1.2-0.5,1.2-1.2l0,0
			C120.8,22.8,120.2,22.2,119.5,22.2"/>
		<path class="st11" d="M117.5,26.3c0-0.7,0.5-1.2,1.2-1.2c0.7,0,1.2,0.5,1.2,1.2c0,0.7-0.5,1.2-1.2,1.2
			C118,27.5,117.5,26.9,117.5,26.3L117.5,26.3z"/>
	</g>
</g>
</svg>
