<?xml version="1.0" encoding="utf-8"?>
<!-- Generator: Adobe Illustrator 22.1.0, SVG Export Plug-In . SVG Version: 6.00 Build 0)  -->
<svg version="1.1" id="Calque_1" xmlns="http://www.w3.org/2000/svg" xmlns:xlink="http://www.w3.org/1999/xlink" x="0px" y="0px"
	 viewBox="0 0 361.3 230.5" style="enable-background:new 0 0 361.3 230.5;" xml:space="preserve">
<style type="text/css">
	.st0{fill:#F6F6F6;stroke:#050505;stroke-width:6;stroke-miterlimit:10;}
	.st1{fill:none;}
	.st2{fill:#070707;}
	.st3{fill:#18E6ED;stroke:#E9F40F;stroke-width:6;stroke-miterlimit:10;}
	.st4{fill:#050505;stroke:#000000;stroke-miterlimit:10;}
</style>
<g>
	<g>
		<path class="st0" d="M12,133.2c0.3-14.6,10.2-24.7,27-42c13.3-13.7,25.6-21.7,37-29c15.3-9.8,28.7-18.4,48-24
			c19-5.5,33.8-5.3,50-5c40.8,0.6,70.1,11.7,76,14c11.3,4.4,26.8,10.6,44,24c20.4,15.9,31.2,32.6,34,37c10.9,17.3,16.8,25.5,16,36
			c-1.4,17.6-18.6,29.1-41,44c-23,15.4-43.4,23-52,26c-14,4.9-44.6,15.2-85,13c-27.5-1.5-48.1-8.1-60-12c-21.6-7.1-35.3-14.9-39-17
			c-8.7-5-18.6-10.8-29-21C25.9,165.3,11.6,151.2,12,133.2z"/>
		<line class="st1" x1="21" y1="111.2" x2="1" y2="93.2"/>
		<path class="st1" d="M149,123.2"/>
		<polygon class="st2" points="18.3,113.5 0,97.8 3.7,91.5 22.3,106.8 		"/>
		<path class="st2" d="M42.5,83.8c-3.9-7.2-7.9-14.4-11.8-21.7l6.7-5l14.3,20.3C48.6,79.6,45.6,81.7,42.5,83.8z"/>
		<path class="st2" d="M84.8,55.7c-2.3-8.6-4.6-17.2-6.8-25.8l7-2l8.7,23C90.7,52.5,87.8,54.1,84.8,55.7z"/>
		<polygon class="st2" points="124.9,34.9 121.2,6.1 129.5,5 134.8,33.1 		"/>
		<path class="st2" d="M171,31c0.7-10.3,1.4-20.7,2.2-31l8.7,2l-1.7,29.3C177.1,31.2,174.1,31.1,171,31z"/>
		<polygon class="st2" points="227.7,39.2 239.3,7.5 247.7,12.2 237.3,43.2 		"/>
		<polygon class="st2" points="270.7,51.8 288.7,29.2 296,34.5 279.7,61.2 		"/>
		<polygon class="st2" points="307.7,81.5 326.7,55.8 335,65.2 315.7,89.8 		"/>
		<path class="st2" d="M334,112.5c22.3-17.3,22.3-17.3,22.3-17.3l5,7L339,122.5L334,112.5z"/>
		<path class="st2" d="M96.5,48.5"/>
	</g>
	<path class="st3" d="M121.5,62.2c-8.2,5.3-26.7,17.3-34,41c-7.3,23.6,1.2,43.9,5,53c3.7,8.9,11.7,27.8,32,39
		c18.8,10.4,37.4,8.2,47,7c5.8-0.7,20.9-3.1,37-13c9-5.5,20.1-12.4,27-26c6.5-12.8,5.8-24.7,5-38c-0.5-8.3-1.4-21.4-9-36
		c-5.9-11.4-13.1-18.2-15-20c-8.2-7.6-16.3-11.4-20-13c-7.3-3.1-13.2-4.1-19-5c-6.5-1-15.4-2.5-26-1C137.1,52.2,127,58.6,121.5,62.2
		z"/>
	<path class="st4" d="M146,105.2c-0.6,0.7-11.1,13.2-6,28c3.8,10.8,13.3,15.2,15,16c10.3,4.5,19.6,1.2,23,0c3.5-1.2,16.1-5.7,19-17
		c2.2-8.5-2.4-16.1-6-22c-3.1-5.1-6.8-11.1-14-14C166.5,92,153.5,96.5,146,105.2z"/>
</g>
</svg>
